<svg version="1.1" id="Layer_1" xmlns="http://www.w3.org/2000/svg" xmlns:xlink="http://www.w3.org/1999/xlink" x="0px" y="0px"
	 width="100%" viewBox="0 0 1080 1080" enable-background="new 0 0 1080 1080" xml:space="preserve">
<path fill="#000000" opacity="1.000000" stroke="none" 
	d="
M705.000000,1081.000000 
	C470.027069,1081.000000 235.554123,1081.000000 1.040590,1081.000000 
	C1.040590,721.068604 1.040590,361.137207 1.040590,1.102903 
	C360.889832,1.102903 720.779663,1.102903 1080.834717,1.102903 
	C1080.834717,360.999939 1080.834717,720.999939 1080.834717,1081.000000 
	C955.803406,1081.000000 830.651672,1081.000000 705.000000,1081.000000 
M182.014618,315.985962 
	C182.014618,315.985962 182.086533,315.962311 181.948868,315.439148 
	C181.647659,315.264923 181.346451,315.090668 181.012207,314.988220 
	C181.012207,314.988220 181.084595,314.956573 180.947556,314.436737 
	C180.648148,314.263672 180.348755,314.090607 180.009750,313.990356 
	C180.009750,313.990356 180.082901,313.951355 179.945984,313.433868 
	C179.647629,313.261871 179.349274,313.089844 179.000000,313.000000 
	C179.000000,313.000000 179.051224,312.916992 178.835220,312.288330 
	C177.573486,311.499054 176.311752,310.709778 175.012726,309.989716 
	C175.012726,309.989716 175.086487,309.962402 174.949142,309.439758 
	C174.648407,309.265533 174.347687,309.091309 174.001938,308.999481 
	C174.001938,308.999481 174.058701,308.924469 174.004868,308.197266 
	C172.677551,307.435120 171.350235,306.672974 170.016205,305.984009 
	C170.016205,305.984009 170.089493,305.978516 169.951691,305.445099 
	C169.645035,305.267517 169.338364,305.089935 169.014587,304.984222 
	C169.014587,304.984222 169.085358,304.963013 169.008896,304.258301 
	C168.361542,303.816223 167.714172,303.374146 167.004868,302.996521 
	C167.004868,302.996521 167.084106,302.955109 166.947067,302.436188 
	C166.648178,302.263397 166.349274,302.090637 166.000610,302.000000 
	C166.000610,302.000000 166.052414,301.918304 165.834320,301.287445 
	C163.914093,299.837769 161.993866,298.388092 160.007858,296.990540 
	C160.007858,296.990540 160.057175,296.922577 160.003998,296.182892 
	C157.905319,291.868225 154.281464,291.626740 149.994293,292.258545 
	C149.994293,303.492767 149.733215,314.474213 150.180450,325.426758 
	C150.290329,328.117737 152.711639,330.714294 153.963638,333.503326 
	C153.963638,333.503326 154.105957,333.618805 154.017349,334.357574 
	C154.325012,334.928436 154.632675,335.499329 154.991257,336.003571 
	C154.991257,336.003571 154.915787,336.040100 154.993408,336.747986 
	C155.650040,337.193817 156.306686,337.639648 156.983414,338.014740 
	C156.983414,338.014740 156.911316,338.029236 157.050934,338.556549 
	C157.354431,338.732971 157.657928,338.909363 157.984894,339.014496 
	C157.984894,339.014496 157.913132,339.036438 158.052139,339.559113 
	C158.353027,339.734070 158.653915,339.909058 158.987518,340.012085 
	C158.987518,340.012085 158.915009,340.043457 159.054077,340.562592 
	C159.353348,340.736084 159.652603,340.909546 159.930588,341.002289 
	C159.930588,341.002289 159.878708,341.068390 159.975464,341.866211 
	C154.995010,343.194092 150.014542,344.521942 144.975769,345.911438 
	C144.975769,345.911438 145.058914,345.925903 144.853165,345.326630 
	C144.248459,345.180664 143.643753,345.034698 142.800797,344.230804 
	C140.817764,343.186676 138.834717,342.142578 136.755096,340.265289 
	C133.215836,339.841522 129.681137,339.103790 126.136475,339.052338 
	C115.147446,338.892670 104.153519,338.916412 93.164444,339.074707 
	C91.449387,339.099396 89.749794,340.198212 88.043045,340.800354 
	C89.184723,342.179718 90.283150,343.599457 91.503143,344.905640 
	C91.759087,345.179688 92.462502,345.035767 92.984596,345.013947 
	C92.984596,345.013947 92.912437,345.033569 93.049797,345.558502 
	C93.351677,345.733582 93.653564,345.908661 93.999222,346.003021 
	C93.999222,346.003021 93.938736,346.072052 94.158806,346.704498 
	C95.434509,347.499695 96.710205,348.294922 97.988136,349.012238 
	C97.988136,349.012238 97.910263,349.015228 98.047020,349.552277 
	C98.355301,349.730957 98.663574,349.909668 98.983360,350.016235 
	C98.983360,350.016235 98.911057,350.026642 99.048538,350.555817 
	C99.352631,350.732361 99.656723,350.908905 99.985138,351.014221 
	C99.985138,351.014221 99.913322,351.036652 100.050964,351.560242 
	C100.352348,351.734711 100.653740,351.909180 100.999390,352.001556 
	C100.999390,352.001556 100.941856,352.074890 101.149460,352.678558 
	C101.759193,352.824310 102.368919,352.970062 103.058350,353.021423 
	C103.058350,353.021423 102.976318,352.929047 103.237923,353.345367 
	C103.678268,353.818665 104.118614,354.291962 105.242630,355.040680 
	C113.469574,362.047852 121.696510,369.054993 129.992203,376.769073 
	C130.653748,377.208649 131.315292,377.648193 131.983902,378.014465 
	C131.983902,378.014465 131.910324,378.016693 132.046921,378.552307 
	C132.354324,378.730743 132.661713,378.909180 132.983521,379.015930 
	C132.983521,379.015930 132.911575,379.028931 133.049438,379.557434 
	C133.353424,379.733612 133.657410,379.909790 133.984955,380.014587 
	C133.984955,380.014587 133.913162,380.036743 134.050598,380.559937 
	C134.351624,380.734436 134.652649,380.908936 134.988037,381.011475 
	C134.988037,381.011475 134.915314,381.044189 135.052658,381.563660 
	C135.351944,381.736572 135.651230,381.909515 135.998779,382.000000 
	C135.998779,382.000000 135.946121,382.080322 136.163513,382.710205 
	C137.429901,383.501892 138.696289,384.293579 139.983841,385.014526 
	C139.983841,385.014526 139.911819,385.030518 140.049652,385.557861 
	C140.352997,385.733673 140.656342,385.909485 140.998566,386.005859 
	C140.998566,386.005859 140.936386,386.068756 141.182953,386.731232 
	C142.438492,387.191437 143.694046,387.651642 145.059097,388.044403 
	C145.059097,388.044403 145.010651,387.925232 145.119141,388.229492 
	C145.193039,388.447388 145.333618,388.606445 146.422897,388.950165 
	C148.247406,388.980835 150.071915,389.011505 152.321762,389.819550 
	C183.575684,389.879974 214.829605,389.946411 246.083557,389.960815 
	C246.755692,389.961121 247.428085,389.363312 248.986420,389.049652 
	C254.647934,389.050476 260.309448,389.055267 265.970978,389.051117 
	C273.635284,389.045471 281.301575,389.122559 288.962372,388.954010 
	C290.657593,388.916718 292.705139,388.451416 293.958771,387.417389 
	C303.014435,379.947693 311.894257,372.265167 320.856537,364.681732 
	C328.538452,358.181671 336.255829,351.723572 344.579865,345.020691 
	C345.072815,344.705811 345.565765,344.390930 346.001221,344.001221 
	C346.001221,344.001221 346.048035,344.083160 346.566681,343.943420 
	C346.739349,343.643555 346.912048,343.343689 347.005585,343.069824 
	C347.005585,343.069824 347.054626,343.137207 347.767059,342.784485 
	C348.195709,341.643219 348.624390,340.501953 349.189972,338.996185 
	C334.215057,338.996185 320.112152,338.916779 306.011047,339.042084 
	C301.478973,339.082367 296.955841,339.834229 292.420959,339.944305 
	C288.447723,340.040741 284.463165,339.703949 280.488373,339.475769 
	C280.404724,339.470947 280.378845,338.459778 280.811279,337.823822 
	C281.191345,337.303345 281.571381,336.782898 282.634613,335.900818 
	C284.088531,333.056305 286.678497,330.258270 286.797089,327.359161 
	C287.277069,315.627289 286.996338,303.864349 286.996338,292.146118 
	C285.122070,292.146118 283.796112,292.114777 282.475037,292.180969 
	C282.283875,292.190521 282.116180,292.667999 281.996674,292.998779 
	C281.996674,292.998779 281.929413,292.936340 281.224396,292.992767 
	C280.453766,293.986633 279.683136,294.980499 278.985077,295.983521 
	C278.985077,295.983521 278.979858,295.910522 278.247650,295.991486 
	C277.145935,296.969055 276.044220,297.946594 274.998779,298.998779 
	C274.998779,298.998779 274.954590,298.916534 274.431854,299.055817 
	C274.259003,299.358337 274.086121,299.660889 273.987640,299.991028 
	C273.987640,299.991028 273.947479,299.922577 273.238495,299.991974 
	C272.796234,300.653351 272.353973,301.314697 271.983765,301.985474 
	C271.983765,301.985474 271.970245,301.914062 271.268890,301.990662 
	C270.503784,302.955750 269.738678,303.920868 268.340485,305.157776 
	C255.657944,316.147003 242.975418,327.136230 229.662369,338.048523 
	C229.413498,338.354431 229.164627,338.660370 228.986572,338.982544 
	C228.986572,338.982544 228.979980,338.910187 228.444946,339.050659 
	C228.266922,339.358948 228.088913,339.667206 227.983215,339.988525 
	C227.983215,339.988525 227.957169,339.919800 227.288132,340.169159 
	C226.827408,341.444244 226.366684,342.719360 225.991547,343.975464 
	C225.991547,343.975464 225.965561,343.891724 225.189178,344.311432 
	C225.189178,348.428528 225.189178,352.545624 225.189178,357.198486 
	C220.849091,357.198486 217.020325,357.198486 213.003922,357.198486 
	C213.003922,354.588013 213.255966,352.725281 212.938263,350.965393 
	C212.565430,348.900177 211.697372,346.924377 211.062164,344.135437 
	C210.080887,342.284912 209.509613,339.975525 208.044525,338.666534 
	C202.813675,333.993011 197.279343,329.659180 191.992630,324.454803 
	C191.015930,323.613464 190.039215,322.772156 189.009537,321.995239 
	C189.009537,321.995239 189.086960,321.964233 188.949493,321.440430 
	C188.648148,321.265747 188.346802,321.091095 188.012375,320.988159 
	C188.012375,320.988159 188.084869,320.956848 187.947739,320.437378 
	C187.648697,320.264252 187.349655,320.091156 187.009293,319.990967 
	C187.009293,319.990967 187.082733,319.950592 186.945526,319.433502 
	C186.647232,319.261566 186.348923,319.089661 186.000900,319.000000 
	C186.000900,319.000000 186.054337,318.919373 185.844498,318.314362 
	C185.228897,318.178467 184.613312,318.042572 184.004486,317.992096 
	C184.004486,317.992096 184.089615,317.982574 183.952744,317.447144 
	C183.645340,317.268829 183.337921,317.090515 183.016556,316.983948 
	C183.016556,316.983948 183.088531,316.971283 182.950943,316.443146 
	C182.647324,316.266968 182.343704,316.090820 182.014618,315.985962 
M298.946686,407.438782 
	C298.646759,407.264771 298.346863,407.090729 298.000336,406.998779 
	C298.000336,406.998779 298.056885,406.923218 297.841736,406.298981 
	C296.900421,405.835266 295.959137,405.371552 295.015717,404.981903 
	C295.015717,404.981903 295.089417,404.974365 294.952209,404.448486 
	C294.650970,404.271637 294.349731,404.094788 294.000000,404.000000 
	C294.000000,404.000000 294.051910,403.919739 293.783600,403.260071 
	C292.847321,403.143219 291.911041,403.026367 290.996887,402.995514 
	C290.996887,402.995514 291.082703,402.972748 290.680450,402.184174 
	C270.332672,401.788147 249.984833,401.070740 229.637161,401.075928 
	C203.136551,401.082672 176.636093,401.662811 150.135559,401.996002 
	C149.471130,402.004364 148.766190,401.874908 148.153961,402.057373 
	C147.576172,402.229645 147.095886,402.729034 146.468216,402.999237 
	C146.468216,402.999237 146.379303,403.100616 145.632080,403.030487 
	C145.060318,403.343323 144.488556,403.656128 143.997971,403.990875 
	C143.997971,403.990875 144.007797,403.907379 143.366318,403.994080 
	C142.889832,404.306305 142.413345,404.618530 142.000000,404.999512 
	C142.000000,404.999512 141.942154,404.926025 141.261032,404.991455 
	C139.821594,406.302307 138.382156,407.613159 136.999756,408.999512 
	C136.999756,408.999512 136.953796,408.916748 136.431656,409.055786 
	C136.258957,409.357971 136.086258,409.660126 135.992737,409.993073 
	C135.992737,409.993073 135.960312,409.914551 135.433395,410.054932 
	C135.259491,410.359985 135.085587,410.665009 134.992050,410.995087 
	C134.992050,410.995087 134.953384,410.920319 134.242584,410.991486 
	C133.466141,411.994171 132.689713,412.996857 132.005386,414.003815 
	C132.005386,414.003815 132.018677,413.912598 131.376846,413.997986 
	C130.898682,414.306732 130.420517,414.615509 129.999756,414.999512 
	C129.999756,414.999512 129.954666,414.916168 129.431747,415.055695 
	C129.258896,415.358429 129.086029,415.661133 128.992340,415.992706 
	C128.992340,415.992706 128.962036,415.914062 128.434174,416.054504 
	C128.259933,416.360046 128.085693,416.665619 127.990982,416.991302 
	C127.990982,416.991302 127.969460,416.912140 127.435310,417.054260 
	C127.260277,417.363983 127.085251,417.673706 126.991760,417.991669 
	C126.991760,417.991669 126.983421,417.910126 126.307121,417.989838 
	C125.185059,418.968506 124.063004,419.947174 122.999931,420.999023 
	C122.999931,420.999023 122.955223,420.916168 122.431763,421.055725 
	C122.258774,421.358734 122.085785,421.661774 121.992134,421.992584 
	C121.992134,421.992584 121.962418,421.913940 121.433243,422.055145 
	C121.259087,422.361816 121.084930,422.668518 120.990547,422.990753 
	C120.990547,422.990753 120.974075,422.911163 120.437454,423.053101 
	C120.261673,423.363983 120.085892,423.674896 119.995148,423.993958 
	C119.995148,423.993958 119.992393,423.908569 119.329956,423.989502 
	C118.534973,424.633453 117.739983,425.277405 116.999634,426.000000 
	C116.999634,426.000000 116.952377,425.916901 116.431595,426.055603 
	C116.259224,426.356903 116.086845,426.658234 115.993500,426.993896 
	C115.993500,426.993896 115.957359,426.915649 115.432579,427.055267 
	C115.259209,427.359009 115.085831,427.662720 114.992882,427.995392 
	C114.992882,427.995392 114.951492,427.920593 114.240402,427.991913 
	C113.797318,428.656036 113.354240,429.320160 112.995750,429.993927 
	C112.995750,429.993927 112.994911,429.908783 112.332069,429.990265 
	C111.536209,430.634308 110.740349,431.278351 109.999687,432.000000 
	C109.999687,432.000000 109.953133,431.917023 109.431694,432.056030 
	C109.259094,432.357788 109.086487,432.659546 108.993034,432.993469 
	C108.993034,432.993469 108.959007,432.915100 108.433250,433.055054 
	C108.259529,433.359314 108.085815,433.663605 107.991493,433.991821 
	C107.991493,433.991821 107.966042,433.912903 107.434578,434.054535 
	C107.259857,434.362518 107.085136,434.670502 106.990234,434.991791 
	C106.990234,434.991791 106.970398,434.913361 106.254089,434.991425 
	C105.806976,435.659821 105.359863,436.328217 105.004311,437.002533 
	C105.004311,437.002533 105.016899,436.911652 104.375313,436.995056 
	C103.897812,437.304657 103.420311,437.614258 102.999756,437.999512 
	C102.999756,437.999512 102.953125,437.917084 102.431274,438.056122 
	C102.258667,438.358185 102.086052,438.660248 101.992722,438.993195 
	C101.992722,438.993195 101.959785,438.914734 101.432617,439.055481 
	C101.258850,439.360901 101.085075,439.666351 100.990891,439.991241 
	C100.990891,439.991241 100.970047,439.911987 100.436035,440.053802 
	C100.260788,440.363220 100.085541,440.672668 99.993134,440.991882 
	C99.993134,440.991882 99.987946,440.908661 99.326614,440.989563 
	C98.533188,441.633026 97.739761,442.276489 96.999634,443.000000 
	C96.999634,443.000000 96.951118,442.917419 96.431610,443.055634 
	C96.259468,443.356110 96.087334,443.656555 95.994080,443.994415 
	C95.994080,443.994415 95.955231,443.916229 95.432030,444.055573 
	C95.259026,444.358398 95.086021,444.661194 94.993774,444.996246 
	C94.993774,444.996246 94.947556,444.922607 94.237823,444.992004 
	C93.795624,445.654724 93.353432,446.317444 92.993721,446.991730 
	C92.993721,446.991730 92.990639,446.908508 92.328514,446.989502 
	C91.534203,447.633362 90.739891,448.277252 89.996338,448.995575 
	C89.996338,448.995575 89.927467,448.937592 89.091835,449.006775 
	C88.649330,449.827759 88.206825,450.648743 87.512360,451.937195 
	C103.687698,451.937195 119.084412,451.945099 134.480972,451.902588 
	C134.994720,451.901184 135.507065,451.389679 136.721436,451.015228 
	C137.494415,450.711151 138.267380,450.407074 139.844467,449.989532 
	C140.665604,450.010162 141.663834,449.732758 142.279816,450.098694 
	C147.090546,452.956665 151.776108,454.608704 156.642914,450.109375 
	C157.330261,449.473907 158.801865,449.686737 160.304688,449.442993 
	C159.692459,450.558228 159.317276,451.241638 158.999680,451.997559 
	C158.999680,451.997559 158.955902,451.915863 158.433640,452.056885 
	C158.260147,452.359192 158.086670,452.661530 157.984833,452.985138 
	C157.984833,452.985138 157.962677,452.913757 157.436874,453.054932 
	C157.261963,453.358887 157.087051,453.662872 156.983887,453.983887 
	C156.983887,453.983887 156.966827,453.912140 156.440903,454.052338 
	C156.265244,454.355469 156.089584,454.658600 155.985245,454.984650 
	C155.985245,454.984650 155.964142,454.912750 155.441650,455.051666 
	C155.266586,455.352264 155.091522,455.652863 155.000000,455.999023 
	C155.000000,455.999023 154.919250,455.948242 154.257965,456.218811 
	C154.145660,457.158173 154.033371,458.097504 154.013474,459.014496 
	C154.013474,459.014496 153.996796,458.920868 153.172546,459.002075 
	C152.113724,462.368530 150.319565,465.696533 150.141220,469.109009 
	C149.699295,477.563843 149.849930,486.061798 150.110931,494.531677 
	C150.167801,496.377441 151.262680,499.251282 152.610245,499.776428 
	C155.410385,500.867737 157.592224,499.138214 158.819977,495.774139 
	C163.888901,491.361298 168.923096,486.907776 174.034561,482.544769 
	C182.626114,475.211212 191.434341,468.120850 199.815491,460.556000 
	C203.957275,456.817596 207.349625,452.248901 211.825119,447.722900 
	C212.218048,446.044586 212.934189,444.369537 212.951126,442.687439 
	C213.056091,432.267670 213.003922,421.846375 213.003922,410.535431 
	C216.909637,412.936615 219.384918,414.458374 221.860184,415.980133 
	C222.011658,415.720032 222.163132,415.459961 222.314606,415.199860 
	C223.197311,416.808014 224.080017,418.416199 225.057480,420.953735 
	C225.037994,429.096436 224.805878,437.247803 225.135941,445.376312 
	C225.228165,447.647400 226.979370,449.851074 227.993073,452.012451 
	C227.993073,452.012451 227.927200,452.052155 228.091537,452.612122 
	C228.630798,452.699921 229.170044,452.787720 230.045425,453.496033 
	C243.014282,464.693787 255.983139,475.891541 268.998077,487.791504 
	C269.988892,488.556396 270.979736,489.321289 271.982971,490.014374 
	C271.982971,490.014374 271.910309,490.019714 272.047607,490.553680 
	C272.354309,490.731598 272.661041,490.909515 272.983582,491.015839 
	C272.983582,491.015839 272.911713,491.030273 273.049133,491.556976 
	C273.351929,491.732788 273.654724,491.908569 273.986206,492.013031 
	C273.986206,492.013031 273.913971,492.039490 274.051544,492.561035 
	C274.351746,492.734955 274.651978,492.908905 274.998779,493.000000 
	C274.998779,493.000000 274.944611,493.078217 275.163208,493.708862 
	C276.433441,494.502045 277.703644,495.295227 278.985077,496.016479 
	C278.985077,496.016479 278.913879,496.031677 278.990753,496.737366 
	C279.969452,497.512115 280.948151,498.286865 281.991730,499.007172 
	C281.991730,499.007172 281.942657,499.076080 282.325287,499.826721 
	C283.778534,499.826721 285.231812,499.826721 287.006073,499.826721 
	C287.006073,491.300934 287.369598,482.854462 286.877106,474.458252 
	C286.553589,468.943024 285.032745,463.492401 283.918243,458.039398 
	C283.824951,457.582794 282.742462,457.328339 281.848816,456.343903 
	C275.513397,450.870392 269.177979,445.396881 262.963898,439.310669 
	C262.668976,438.855957 262.374084,438.401245 262.013702,437.989166 
	C262.013702,437.989166 262.060211,437.926392 261.823761,437.278809 
	C261.264191,437.103180 260.704651,436.927551 260.136932,436.861938 
	C260.136932,436.861938 260.227753,436.799286 260.567596,436.121063 
	C259.720459,435.717987 258.873352,435.314911 258.015503,434.983826 
	C258.015503,434.983826 258.087280,434.971924 257.780029,434.062378 
	C262.304688,434.376190 266.825958,434.844940 271.355286,434.943207 
	C273.895294,434.998291 276.448547,434.440216 279.260529,434.781464 
	C283.267029,438.127472 287.535736,441.210175 291.220337,444.879425 
	C297.170288,450.804596 304.302765,452.456390 312.287384,451.866333 
	C315.884735,451.600525 319.484192,451.008575 323.073975,451.070557 
	C330.163696,451.192963 337.245941,451.709045 344.335052,451.953308 
	C345.428589,451.990997 346.542114,451.449249 348.363922,450.997498 
	C338.556519,442.619934 329.488312,434.871094 320.416962,427.125916 
	C314.238251,421.850525 308.055054,416.580414 301.989258,410.535583 
	C301.345703,409.999695 300.702118,409.463806 300.011627,408.993958 
	C300.011627,408.993958 300.087646,408.966003 299.948273,408.441772 
	C299.646484,408.266327 299.344727,408.090881 299.013550,407.987000 
	C299.013550,407.987000 299.085785,407.959351 298.946686,407.438782 
M720.516663,458.047668 
	C720.516663,458.047668 720.735840,457.871033 721.638794,457.989075 
	C721.819336,453.905609 723.496643,448.948547 721.764709,445.981293 
	C719.988403,442.937805 718.776367,440.791412 718.839783,437.046478 
	C719.149658,418.747437 718.891479,400.438843 718.963684,381.268738 
	C719.012634,379.521149 719.061584,377.773529 719.911621,375.993347 
	C722.113281,371.114716 719.593689,366.010895 714.169006,365.041290 
	C705.723877,363.531830 697.230774,362.282959 688.743713,361.019318 
	C685.697327,360.565765 682.585388,359.992188 679.546509,360.178040 
	C674.861633,360.464508 670.224426,361.807495 665.548523,361.917023 
	C643.889038,362.424286 622.224060,362.752838 600.559265,362.963409 
	C584.562378,363.118896 568.562683,362.994476 552.564270,362.992737 
	C551.397888,362.992615 550.231323,362.960175 549.065063,362.969421 
	C541.574768,363.028870 534.074951,362.882782 526.596924,363.219910 
	C519.071350,363.559204 511.574585,364.504089 504.051147,364.941010 
	C500.218445,365.163605 496.322266,364.502045 492.511627,364.854492 
	C483.269592,365.709351 474.083466,367.491028 464.833405,367.858795 
	C451.525604,368.387939 438.178436,367.843719 424.854004,368.085663 
	C420.872986,368.157959 416.934845,369.578033 412.937103,369.943787 
	C403.466461,370.810272 393.971558,371.410187 384.489471,372.156250 
	C384.288727,372.172058 384.124420,372.650787 383.207184,373.286438 
	C379.472107,373.811096 375.737061,374.335785 371.638214,374.143433 
	C368.173126,374.113037 363.564941,372.791901 363.107147,377.999451 
	C361.789093,392.993042 360.994080,408.032623 359.994354,423.054169 
	C359.918030,424.200592 360.087799,425.426941 359.738159,426.481873 
	C356.256256,436.987946 359.460510,447.344757 360.372437,457.748108 
	C360.378174,457.813416 360.959045,457.828278 362.040039,458.053345 
	C380.304779,458.036255 398.569519,458.019165 417.274200,458.781342 
	C417.932648,458.855286 418.591125,458.993896 419.249573,458.993958 
	C518.239563,459.003845 617.229492,459.007812 716.219482,458.960693 
	C717.562622,458.960052 718.905457,458.309204 720.516663,458.047668 
z"/>
<path fill="#FBFAFE" opacity="1.000000" stroke="none" 
	d="
M383.943115,372.913574 
	C384.124420,372.650787 384.288727,372.172058 384.489471,372.156250 
	C393.971558,371.410187 403.466461,370.810272 412.937103,369.943787 
	C416.934845,369.578033 420.872986,368.157959 424.854004,368.085663 
	C438.178436,367.843719 451.525604,368.387939 464.833405,367.858795 
	C474.083466,367.491028 483.269592,365.709351 492.511627,364.854492 
	C496.322266,364.502045 500.218445,365.163605 504.051147,364.941010 
	C511.574585,364.504089 519.071350,363.559204 526.596924,363.219910 
	C534.074951,362.882782 541.574768,363.028870 549.065063,362.969421 
	C550.231323,362.960175 551.397888,362.992615 552.564270,362.992737 
	C568.562683,362.994476 584.562378,363.118896 600.559265,362.963409 
	C622.224060,362.752838 643.889038,362.424286 665.548523,361.917023 
	C670.224426,361.807495 674.861633,360.464508 679.546509,360.178040 
	C682.585388,359.992188 685.697327,360.565765 688.743713,361.019318 
	C697.230774,362.282959 705.723877,363.531830 714.169006,365.041290 
	C719.593689,366.010895 722.113281,371.114716 719.430542,375.603821 
	C719.318909,372.128601 717.809875,371.007172 714.877136,371.144958 
	C711.889465,371.285278 708.890381,371.378632 705.903015,371.282959 
	C702.454407,371.172455 700.874939,372.377930 700.710449,376.128723 
	C699.938721,393.720886 698.717468,411.294434 698.042480,428.889404 
	C697.530762,442.227661 697.788269,442.083557 711.155701,441.993591 
	C715.360535,441.965240 716.948853,440.469360 716.520569,436.434692 
	C715.221863,424.199799 716.866516,412.005157 717.152100,399.794525 
	C717.290039,393.897675 718.247681,388.019989 718.834229,382.133606 
	C718.891479,400.438843 719.149658,418.747437 718.839783,437.046478 
	C718.776367,440.791412 719.988403,442.937805 721.764709,445.981293 
	C723.496643,448.948547 721.819336,453.905609 721.220947,457.481689 
	C720.803101,454.037323 720.803101,451.100342 720.803101,448.114624 
	C600.656982,448.114624 481.068634,448.114624 361.271362,448.114624 
	C361.271362,451.606232 361.271362,454.736450 361.271362,457.866699 
	C360.959045,457.828278 360.378174,457.813416 360.372437,457.748108 
	C359.460510,447.344757 356.256256,436.987946 359.738159,426.481873 
	C360.087799,425.426941 359.918030,424.200592 359.994354,423.054169 
	C360.994080,408.032623 361.789093,392.993042 363.107147,377.999451 
	C363.564941,372.791901 368.173126,374.113037 371.419067,374.572357 
	C368.199219,375.270386 365.308929,375.158844 364.985565,379.610321 
	C363.577240,398.997375 361.953766,418.369507 360.280121,437.735962 
	C359.985443,441.145660 361.277954,442.103790 364.483917,442.043823 
	C372.462311,441.894592 380.449768,442.142365 388.424255,441.910278 
	C391.355774,441.824951 394.314850,441.030701 397.168793,440.229919 
	C407.950897,437.204590 414.735687,418.304443 403.486053,407.282074 
	C404.798096,405.632233 406.220428,404.024689 407.441071,402.276306 
	C411.867767,395.935822 412.850983,388.852661 409.802124,381.941193 
	C406.714142,374.941101 400.233582,372.736481 392.878143,372.876770 
	C389.900665,372.933563 386.921509,372.903900 383.943115,372.913574 
M685.168152,392.355896 
	C683.717651,387.437164 682.623596,382.374664 680.714355,377.640961 
	C678.882690,373.099487 674.766724,371.356812 670.049805,372.122711 
	C666.194397,372.748688 661.023132,371.278717 659.199280,376.319824 
	C651.862732,396.598083 644.808167,416.978271 637.607544,437.305939 
	C636.423828,440.647766 638.163940,441.541565 640.963623,441.633789 
	C644.123169,441.737854 647.322327,441.472656 650.437744,441.878479 
	C654.742676,442.439270 656.339233,440.468750 657.077271,436.556183 
	C657.461487,434.519287 658.493896,431.542023 659.984802,430.978943 
	C664.199219,429.387146 668.801636,428.822784 673.615173,427.774353 
	C673.856995,431.533386 674.096619,434.501556 674.226135,437.474518 
	C674.364746,440.658112 675.571106,442.336792 679.138245,442.060913 
	C682.777344,441.779449 686.458557,441.900116 690.114990,442.027771 
	C693.306519,442.139252 694.182190,440.844086 693.598511,437.765991 
	C690.782837,422.916626 688.095093,408.042999 685.168152,392.355896 
M481.843628,373.139862 
	C479.590881,373.729309 477.367523,374.511169 475.078125,374.860413 
	C472.090698,375.316071 470.949280,376.741394 470.799103,379.828064 
	C469.989746,396.463257 468.839355,413.082153 468.067017,429.718750 
	C467.481018,442.341949 467.652283,442.221069 480.322357,442.028992 
	C490.687012,441.871887 499.589508,438.889221 506.177582,430.400360 
	C514.227539,420.027832 517.519592,408.172394 516.332581,395.311646 
	C514.657837,377.165649 506.125397,370.392273 488.088074,372.050385 
	C486.273254,372.217224 484.485443,372.677582 481.843628,373.139862 
M522.779663,386.306458 
	C521.923340,400.601074 521.054260,414.894928 520.214417,429.190491 
	C519.441833,442.339020 519.455627,442.067444 532.500244,442.063202 
	C545.752747,442.058929 555.542725,436.532379 562.068604,425.131836 
	C567.343872,415.916046 569.503174,405.893555 568.779968,395.365295 
	C567.643188,378.817200 559.321289,371.341095 542.916199,371.994629 
	C539.460144,372.132324 535.979797,372.807312 532.604614,373.623260 
	C521.170959,376.387268 523.459534,374.687134 522.779663,386.306458 
M448.122772,374.013306 
	C447.407593,386.311768 446.781799,398.616516 445.917389,410.904480 
	C445.687256,414.176453 445.525818,417.918182 443.855743,420.482056 
	C442.427856,422.674072 438.922272,424.412567 436.259918,424.522858 
	C434.918549,424.578430 433.061096,420.716553 432.098053,418.356384 
	C431.458252,416.788391 431.878143,414.734924 432.012390,412.912689 
	C432.868500,401.292328 433.638397,389.662689 434.742432,378.065155 
	C435.136200,373.928772 433.982941,372.343018 429.699890,372.318878 
	C419.062561,372.258911 418.633972,372.069672 417.614105,382.749786 
	C416.334503,396.150574 415.477142,409.618774 415.175720,423.074432 
	C415.025482,429.781952 416.674957,436.536896 423.711182,439.922333 
	C439.951660,447.736298 459.800476,437.923187 461.888702,420.182953 
	C463.615570,405.512299 463.550140,390.625549 464.057465,375.826935 
	C464.094482,374.746979 462.355408,372.677368 461.400085,372.652039 
	C457.133209,372.539093 452.851135,373.001404 448.122772,374.013306 
M605.759155,418.583191 
	C611.651306,404.031494 617.543396,389.479797 623.804626,374.016571 
	C619.682495,373.508331 616.359192,373.498779 613.282837,372.622314 
	C609.026367,371.409637 607.343994,373.262634 605.933105,376.895966 
	C603.189087,383.962341 600.069824,390.882996 596.707092,398.803558 
	C594.192810,392.279114 592.190125,386.714325 589.917786,381.261871 
	C585.094360,369.688110 588.646484,370.751984 575.451904,374.989075 
	C572.286499,376.005554 571.807007,377.579529 572.913818,380.569977 
	C576.833252,391.159332 580.283447,401.928772 584.427124,412.426422 
	C587.177490,419.394257 588.522034,426.155243 587.275879,433.724915 
	C585.921143,441.954407 586.419250,442.036682 594.570068,441.946716 
	C596.400635,441.926514 598.235474,441.813995 600.060730,441.902283 
	C603.079224,442.048279 604.057861,440.632202 604.164795,437.706146 
	C604.388855,431.573853 604.957886,425.454193 605.759155,418.583191 
M627.783508,424.181580 
	C626.792297,424.085236 625.799316,423.890808 624.810242,423.909210 
	C619.987732,423.998962 616.542664,426.770660 615.956055,430.963623 
	C615.282715,435.776123 617.884888,439.930389 622.462830,441.351654 
	C626.539734,442.617371 630.731628,440.732849 632.819763,436.695679 
	C635.114990,432.258148 633.713135,428.271332 627.783508,424.181580 
z"/>
<path fill="#564BE6" opacity="1.000000" stroke="none" 
	d="
M361.655701,457.960022 
	C361.271362,454.736450 361.271362,451.606232 361.271362,448.114624 
	C481.068634,448.114624 600.656982,448.114624 720.803101,448.114624 
	C720.803101,451.100342 720.803101,454.037323 720.769470,457.422668 
	C720.735840,457.871033 720.516663,458.047668 719.900513,457.931274 
	C619.461609,457.802460 519.638794,457.789398 419.816010,457.786926 
	C418.822083,457.786926 417.828186,457.927246 416.834259,458.002075 
	C398.569519,458.019165 380.304779,458.036255 361.655701,457.960022 
z"/>
<path fill="#FCFCFF" opacity="1.000000" stroke="none" 
	d="
M280.326019,337.918060 
	C280.378845,338.459778 280.404724,339.470947 280.488373,339.475769 
	C284.463165,339.703949 288.447723,340.040741 292.420959,339.944305 
	C296.955841,339.834229 301.478973,339.082367 306.011047,339.042084 
	C320.112152,338.916779 334.215057,338.996185 349.189972,338.996185 
	C348.624390,340.501953 348.195709,341.643219 347.129608,342.616302 
	C345.640839,341.765656 344.795197,340.497101 343.937347,340.488800 
	C331.465332,340.367950 318.976501,340.074219 306.527557,340.628265 
	C302.714355,340.797974 298.409546,342.639526 295.364685,345.032318 
	C285.174683,353.040009 275.434723,361.622131 265.557922,370.026001 
	C258.509460,376.023315 251.518005,382.087616 244.020920,388.534973 
	C245.896469,388.769257 246.998398,388.906891 248.100342,389.044556 
	C247.428085,389.363312 246.755692,389.961121 246.083557,389.960815 
	C214.829605,389.946411 183.575684,389.879974 152.578491,389.351685 
	C166.006897,388.883820 179.178558,388.883820 193.452744,388.883820 
	C191.503571,387.049835 190.582611,386.104004 189.581146,385.252960 
	C175.630173,373.397797 161.649643,361.577271 147.743042,349.670380 
	C146.592850,348.685577 145.925674,347.136658 145.034088,345.849823 
	C150.014542,344.521942 154.995010,343.194092 160.175446,341.125732 
	C161.609100,341.214661 162.938339,341.932129 164.062012,342.890533 
	C178.634628,355.320099 193.173904,367.788788 207.737381,380.229095 
	C208.778793,381.118652 209.943405,381.863953 211.044083,382.671448 
	C211.044083,369.796692 211.044083,357.353241 211.044083,344.909790 
	C211.697372,346.924377 212.565430,348.900177 212.938263,350.965393 
	C213.255966,352.725281 213.003922,354.588013 213.003922,357.198486 
	C217.020325,357.198486 220.849091,357.198486 225.189178,357.198486 
	C225.189178,352.545624 225.189178,348.428528 225.729919,344.558807 
	C226.270660,357.306122 226.270660,369.806091 226.270660,382.859650 
	C227.421402,381.949860 228.184891,381.386230 228.904617,380.771301 
	C242.785141,368.912048 256.628632,357.009125 270.561676,345.211914 
	C273.656403,342.591583 277.063019,340.339630 280.326019,337.918060 
z"/>
<path fill="#5347E5" opacity="1.000000" stroke="none" 
	d="
M383.575134,373.100006 
	C386.921509,372.903900 389.900665,372.933563 392.878143,372.876770 
	C400.233582,372.736481 406.714142,374.941101 409.802124,381.941193 
	C412.850983,388.852661 411.867767,395.935822 407.441071,402.276306 
	C406.220428,404.024689 404.798096,405.632233 403.486053,407.282074 
	C414.735687,418.304443 407.950897,437.204590 397.168793,440.229919 
	C394.314850,441.030701 391.355774,441.824951 388.424255,441.910278 
	C380.449768,442.142365 372.462311,441.894592 364.483917,442.043823 
	C361.277954,442.103790 359.985443,441.145660 360.280121,437.735962 
	C361.953766,418.369507 363.577240,398.997375 364.985565,379.610321 
	C365.308929,375.158844 368.199219,375.270386 371.600952,374.930847 
	C375.737061,374.335785 379.472107,373.811096 383.575134,373.100006 
M380.859192,390.420410 
	C380.425201,393.569275 379.991211,396.718140 379.394531,401.047424 
	C383.447174,399.560699 386.718964,399.023041 389.078766,397.262695 
	C390.661499,396.082001 390.951141,393.167877 391.819366,391.029327 
	C390.066986,390.509796 388.340790,389.727264 386.554382,389.549164 
	C384.960114,389.390228 383.299225,389.899109 380.859192,390.420410 
M385.564362,424.249786 
	C386.123535,423.902618 386.970856,423.683441 387.191833,423.186035 
	C388.123383,421.089172 388.868042,418.909332 389.681061,416.759857 
	C387.464294,416.227020 385.253479,415.297333 383.029205,415.263916 
	C380.375946,415.223999 378.335785,416.374268 378.732300,419.786774 
	C378.952789,421.684631 378.589813,423.650269 378.446533,426.422424 
	C380.984436,425.731781 382.947632,425.197510 385.564362,424.249786 
z"/>
<path fill="#5347E5" opacity="1.000000" stroke="none" 
	d="
M211.081055,448.055847 
	C207.349625,452.248901 203.957275,456.817596 199.815491,460.556000 
	C191.434341,468.120850 182.626114,475.211212 174.034561,482.544769 
	C168.923096,486.907776 163.888901,491.361298 158.143341,495.836365 
	C156.167526,496.790039 154.868362,497.681549 153.996796,498.279633 
	C153.996796,485.170441 153.996796,472.045654 153.996796,458.920868 
	C153.996796,458.920868 154.013474,459.014496 154.325470,458.839722 
	C154.731400,457.759369 154.825333,456.853790 154.919250,455.948242 
	C154.919250,455.948242 155.000000,455.999023 155.338257,456.164856 
	C155.772385,455.858063 155.868271,455.385406 155.964142,454.912750 
	C155.964142,454.912750 155.985245,454.984650 156.324707,455.122833 
	C156.765045,454.811401 156.865921,454.361755 156.966827,453.912140 
	C156.966827,453.912140 156.983887,453.983887 157.329651,454.102509 
	C157.771179,453.785339 157.866928,453.349548 157.962677,452.913757 
	C157.962677,452.913757 157.984833,452.985138 158.343781,453.120880 
	C158.787109,452.809692 158.871521,452.362793 158.955902,451.915863 
	C158.955902,451.915863 158.999680,451.997559 159.227676,452.280273 
	C161.045471,451.375153 162.707352,450.271820 164.213852,448.986359 
	C178.751221,436.581848 193.258163,424.141632 207.790405,411.731079 
	C208.820602,410.851227 209.982147,410.125183 211.081055,409.328766 
	C211.081055,422.560181 211.081055,435.308014 211.081055,448.055847 
z"/>
<path fill="#5347E5" opacity="1.000000" stroke="none" 
	d="
M211.053131,344.522614 
	C211.044083,357.353241 211.044083,369.796692 211.044083,382.671448 
	C209.943405,381.863953 208.778793,381.118652 207.737381,380.229095 
	C193.173904,367.788788 178.634628,355.320099 164.062012,342.890533 
	C162.938339,341.932129 161.609100,341.214661 160.127060,340.726807 
	C159.878708,341.068390 159.930588,341.002289 160.143768,340.648865 
	C159.876312,340.211426 159.395660,340.127441 158.915009,340.043457 
	C158.915009,340.043457 158.987518,340.012085 159.154053,339.666504 
	C158.851440,339.226074 158.382294,339.131256 157.913132,339.036438 
	C157.913132,339.036438 157.984894,339.014496 158.123169,338.680878 
	C157.811401,338.241241 157.361359,338.135254 156.911316,338.029236 
	C156.911316,338.029236 156.983414,338.014740 157.117676,337.687744 
	C156.473221,336.920502 155.694504,336.480316 154.915787,336.040100 
	C154.915787,336.040100 154.991257,336.003571 155.216431,335.732758 
	C154.996384,334.847565 154.551163,334.233185 154.105957,333.618805 
	C154.105957,333.618805 153.963638,333.503326 154.004517,332.977234 
	C154.045395,319.482880 154.045395,306.514618 154.045395,294.077789 
	C155.752213,294.885468 157.904694,295.904022 160.057175,296.922577 
	C160.057175,296.922577 160.007858,296.990540 159.732117,297.236938 
	C161.655060,298.961670 163.853745,300.440002 166.052414,301.918304 
	C166.052414,301.918304 166.000610,302.000000 165.813843,302.354828 
	C166.112762,302.791473 166.598434,302.873291 167.084106,302.955109 
	C167.084106,302.955109 167.004868,302.996521 166.742157,303.279846 
	C167.348083,304.029755 168.216721,304.496399 169.085358,304.963013 
	C169.085358,304.963013 169.014587,304.984222 168.909622,305.304688 
	C169.232941,305.742920 169.661224,305.860718 170.089493,305.978516 
	C170.089493,305.978516 170.016205,305.984009 169.937897,306.320465 
	C171.259293,307.412781 172.658997,308.168640 174.058701,308.924469 
	C174.058701,308.924469 174.001938,308.999481 173.833557,309.340332 
	C174.138962,309.774902 174.612717,309.868652 175.086487,309.962402 
	C175.086487,309.962402 175.012726,309.989716 174.823792,310.312408 
	C176.106995,311.395721 177.579117,312.156342 179.051224,312.916992 
	C179.051224,312.916992 179.000000,313.000000 178.808685,313.362274 
	C179.105865,313.800140 179.594376,313.875763 180.082901,313.951355 
	C180.082901,313.951355 180.009750,313.990356 179.824478,314.346893 
	C180.121002,314.787811 180.602798,314.872192 181.084595,314.956604 
	C181.084595,314.956573 181.012207,314.988220 180.846313,315.334290 
	C181.149124,315.774384 181.617828,315.868347 182.086533,315.962311 
	C182.086533,315.962311 182.014618,315.985962 181.874939,316.317871 
	C182.186371,316.756958 182.637451,316.864105 183.088531,316.971252 
	C183.088531,316.971283 183.016556,316.983948 182.915649,317.299561 
	C183.239700,317.737640 183.664658,317.860107 184.089615,317.982574 
	C184.089615,317.982574 184.004486,317.992096 184.035736,318.377380 
	C184.729446,318.814911 185.391891,318.867126 186.054337,318.919373 
	C186.054337,318.919373 186.000900,319.000000 185.810211,319.363403 
	C186.107269,319.801422 186.595001,319.876007 187.082733,319.950592 
	C187.082733,319.950592 187.009293,319.990967 186.818771,320.346436 
	C187.113785,320.786865 187.599335,320.871857 188.084869,320.956848 
	C188.084869,320.956848 188.012375,320.988159 187.847504,321.331238 
	C188.150726,321.770935 188.618835,321.867584 189.086960,321.964233 
	C189.086960,321.964233 189.009537,321.995239 188.786240,322.246704 
	C189.661911,323.397705 190.760880,324.297272 191.859833,325.196838 
	C197.279343,329.659180 202.813675,333.993011 208.044525,338.666534 
	C209.509613,339.975525 210.080887,342.284912 211.053131,344.522614 
z"/>
<path fill="#5146E5" opacity="1.000000" stroke="none" 
	d="
M268.951996,487.089325 
	C255.983139,475.891541 243.014282,464.693787 229.738647,452.919739 
	C228.930313,452.246338 228.428757,452.149231 227.927200,452.052155 
	C227.927200,452.052155 227.993073,452.012451 228.113190,451.656616 
	C227.439011,447.306885 226.222198,443.341888 225.947159,439.312592 
	C225.509140,432.895142 225.698395,426.434906 225.711441,419.549805 
	C225.800507,415.933411 225.800507,412.760010 225.800507,408.589874 
	C235.253937,416.586731 243.667068,423.749451 252.151993,430.826111 
	C253.282791,431.769257 254.777634,432.275909 256.057281,432.987427 
	C256.010681,432.990143 256.015625,432.896912 255.856750,433.255005 
	C256.494354,434.066010 257.290802,434.518982 258.087280,434.971924 
	C258.087280,434.971924 258.015503,434.983826 257.919739,435.310364 
	C258.625244,436.024384 259.426514,436.411835 260.227753,436.799286 
	C260.227753,436.799286 260.136932,436.861938 260.112366,437.236572 
	C260.745239,437.716309 261.402740,437.821350 262.060211,437.926392 
	C262.060211,437.926392 262.013702,437.989166 261.746826,438.178772 
	C261.934143,438.886719 262.388367,439.405060 262.842560,439.923401 
	C269.177979,445.396881 275.513397,450.870392 281.997314,457.052856 
	C282.799561,459.959229 283.970673,462.145447 284.018860,464.356079 
	C284.246002,474.783112 284.235870,485.217804 284.095612,495.646851 
	C284.080109,496.799377 282.693420,497.933472 281.942688,499.076080 
	C281.942657,499.076080 281.991730,499.007172 282.273315,498.758728 
	C281.341187,497.684082 280.127533,496.857880 278.913879,496.031677 
	C278.913879,496.031677 278.985077,496.016479 279.078857,495.677643 
	C277.763275,494.585266 276.353943,493.831726 274.944611,493.078186 
	C274.944611,493.078217 274.998779,493.000000 275.174438,492.654724 
	C274.871399,492.219452 274.392670,492.129486 273.913971,492.039490 
	C273.913971,492.039490 273.986206,492.013031 274.140442,491.677277 
	C273.833679,491.237762 273.372681,491.134033 272.911713,491.030273 
	C272.911713,491.030273 272.983582,491.015839 273.094360,490.695923 
	C272.773499,490.257263 272.341919,490.138489 271.910309,490.019714 
	C271.910309,490.019714 271.982971,490.014374 272.085510,489.715973 
	C271.109406,488.641479 270.030701,487.865387 268.951996,487.089325 
z"/>
<path fill="#5448E6" opacity="1.000000" stroke="none" 
	d="
M248.543381,389.047089 
	C246.998398,388.906891 245.896469,388.769257 244.020920,388.534973 
	C251.518005,382.087616 258.509460,376.023315 265.557922,370.026001 
	C275.434723,361.622131 285.174683,353.040009 295.364685,345.032318 
	C298.409546,342.639526 302.714355,340.797974 306.527557,340.628265 
	C318.976501,340.074219 331.465332,340.367950 343.937347,340.488800 
	C344.795197,340.497101 345.640839,341.765656 346.773376,342.792664 
	C347.054626,343.137207 347.005585,343.069824 346.643616,342.876160 
	C346.203796,343.149353 346.125916,343.616272 346.048035,344.083160 
	C346.048035,344.083160 346.001221,344.001221 345.744476,343.696472 
	C344.977661,344.010162 344.467590,344.628540 343.957550,345.246948 
	C336.255829,351.723572 328.538452,358.181671 320.856537,364.681732 
	C311.894257,372.265167 303.014435,379.947693 293.958771,387.417389 
	C292.705139,388.451416 290.657593,388.916718 288.962372,388.954010 
	C281.301575,389.122559 273.635284,389.045471 265.970978,389.051117 
	C260.309448,389.055267 254.647934,389.050476 248.543381,389.047089 
z"/>
<path fill="#5146E5" opacity="1.000000" stroke="none" 
	d="
M280.568665,337.870941 
	C277.063019,340.339630 273.656403,342.591583 270.561676,345.211914 
	C256.628632,357.009125 242.785141,368.912048 228.904617,380.771301 
	C228.184891,381.386230 227.421402,381.949860 226.270660,382.859650 
	C226.270660,369.806091 226.270660,357.306122 226.118103,344.348938 
	C225.965561,343.891724 225.991547,343.975464 226.325958,343.990540 
	C227.092636,342.643677 227.524902,341.281738 227.957153,339.919800 
	C227.957169,339.919800 227.983215,339.988525 228.301880,340.072540 
	C228.740372,339.741089 228.860184,339.325653 228.979980,338.910187 
	C228.979980,338.910187 228.986572,338.982544 229.267303,339.098572 
	C229.796295,338.851532 230.044571,338.488495 230.292877,338.125458 
	C242.975418,327.136230 255.657944,316.147003 268.997864,305.016785 
	C270.426910,303.888519 271.198578,302.901276 271.970215,301.914062 
	C271.970245,301.914062 271.983765,301.985474 272.327637,302.074554 
	C273.096802,301.416595 273.522125,300.669586 273.947479,299.922577 
	C273.947479,299.922577 273.987640,299.991028 274.347961,300.125549 
	C274.790405,299.812195 274.872498,299.364380 274.954590,298.916534 
	C274.954590,298.916534 274.998779,298.998779 275.226318,299.289185 
	C276.629211,298.356567 277.804535,297.133545 278.979858,295.910522 
	C278.979858,295.910522 278.985077,295.983521 279.326324,296.081390 
	C280.421509,295.098297 281.175476,294.017303 281.929413,292.936340 
	C281.929413,292.936340 281.996674,292.998779 282.276215,293.295349 
	C283.096191,294.152222 284.133209,294.739380 284.104553,295.268860 
	C283.365021,308.932190 286.276398,322.793793 281.951416,336.262451 
	C281.571381,336.782898 281.191345,337.303345 280.568665,337.870941 
z"/>
<path fill="#5146E5" opacity="1.000000" stroke="none" 
	d="
M301.873901,411.307922 
	C308.055054,416.580414 314.238251,421.850525 320.416962,427.125916 
	C329.488312,434.871094 338.556519,442.619934 348.363922,450.997498 
	C346.542114,451.449249 345.428589,451.990997 344.335052,451.953308 
	C337.245941,451.709045 330.163696,451.192963 323.073975,451.070557 
	C319.484192,451.008575 315.884735,451.600525 312.287384,451.866333 
	C304.302765,452.456390 297.170288,450.804596 291.220337,444.879425 
	C287.535736,441.210175 283.267029,438.127472 279.134216,434.115570 
	C267.508728,423.538177 256.009583,413.626678 243.649078,402.972748 
	C260.264526,402.972748 275.673615,402.972748 291.082703,402.972748 
	C291.082703,402.972748 290.996887,402.995514 291.119995,403.343628 
	C292.179382,403.767731 293.115662,403.843750 294.051910,403.919739 
	C294.051910,403.919739 294.000000,404.000000 293.825562,404.324158 
	C294.130554,404.756989 294.609985,404.865692 295.089417,404.974365 
	C295.089417,404.974365 295.015717,404.981903 294.954834,405.344055 
	C295.948242,406.111877 297.002563,406.517548 298.056885,406.923218 
	C298.056885,406.923218 298.000336,406.998779 297.824310,407.348083 
	C298.127441,407.784729 298.606628,407.872040 299.085785,407.959351 
	C299.085785,407.959351 299.013550,407.987000 298.852661,408.329773 
	C299.157074,408.770355 299.622375,408.868195 300.087646,408.966003 
	C300.087646,408.966003 300.011627,408.993958 299.796875,409.257904 
	C300.346039,410.117188 301.109985,410.712555 301.873901,411.307922 
z"/>
<path fill="#5347E5" opacity="1.000000" stroke="none" 
	d="
M145.004929,345.880615 
	C145.925674,347.136658 146.592850,348.685577 147.743042,349.670380 
	C161.649643,361.577271 175.630173,373.397797 189.581146,385.252960 
	C190.582611,386.104004 191.503571,387.049835 193.452744,388.883820 
	C179.178558,388.883820 166.006897,388.883820 152.365829,388.963013 
	C150.071915,389.011505 148.247406,388.980835 145.809143,388.761871 
	C144.945648,388.410736 144.884064,388.194641 145.010651,387.925232 
	C145.010651,387.925232 145.059097,388.044403 144.900513,387.725891 
	C143.473419,386.961182 142.204895,386.514984 140.936386,386.068756 
	C140.936386,386.068756 140.998566,386.005859 141.133118,385.675385 
	C140.815704,385.240112 140.363754,385.135315 139.911819,385.030518 
	C139.911819,385.030518 139.983841,385.014526 140.119415,384.680115 
	C138.818695,383.590576 137.382416,382.835449 135.946121,382.080322 
	C135.946121,382.080322 135.998779,382.000000 136.180450,381.647736 
	C135.879852,381.211731 135.397583,381.127960 134.915314,381.044189 
	C134.915314,381.044189 134.988037,381.011475 135.155930,380.667297 
	C134.853592,380.227631 134.383377,380.132202 133.913162,380.036743 
	C133.913162,380.036743 133.984955,380.014587 134.118469,379.682373 
	C133.805161,379.243103 133.358368,379.136047 132.911575,379.028931 
	C132.911575,379.028931 132.983521,379.015930 133.086014,378.701050 
	C132.762451,378.263000 132.336380,378.139862 131.910324,378.016693 
	C131.910324,378.016693 131.983902,378.014465 132.061691,377.712433 
	C131.400818,376.960968 130.662140,376.511566 129.923462,376.062134 
	C121.696510,369.054993 113.469574,362.047852 104.804291,354.674133 
	C103.902733,353.848083 103.439529,353.388550 102.976318,352.929047 
	C102.976318,352.929047 103.058350,353.021423 102.940796,352.670837 
	C102.196121,352.238434 101.568985,352.156677 100.941856,352.074890 
	C100.941856,352.074890 100.999390,352.001556 101.157410,351.662109 
	C100.848061,351.227356 100.380692,351.132019 99.913322,351.036652 
	C99.913322,351.036652 99.985138,351.014221 100.121399,350.685364 
	C99.808792,350.246521 99.359924,350.136597 98.911057,350.026642 
	C98.911057,350.026642 98.983360,350.016235 99.074966,349.704224 
	C98.747795,349.266541 98.329033,349.140900 97.910263,349.015228 
	C97.910263,349.015228 97.988136,349.012238 98.032227,348.679443 
	C96.697128,347.588440 95.317940,346.830231 93.938744,346.072021 
	C93.938736,346.072052 93.999222,346.003021 94.153534,345.668243 
	C93.842712,345.233490 93.377571,345.133545 92.912437,345.033569 
	C92.912437,345.033569 92.984596,345.013947 93.134293,344.671814 
	C92.514336,343.356598 91.744698,342.383545 90.728249,341.098480 
	C106.471054,341.098480 121.661362,341.098480 136.851669,341.098480 
	C138.834717,342.142578 140.817764,343.186676 142.991714,344.955505 
	C143.808060,345.762115 144.433487,345.843994 145.058914,345.925903 
	C145.058914,345.925903 144.975769,345.911438 145.004929,345.880615 
z"/>
<path fill="#5146E5" opacity="1.000000" stroke="none" 
	d="
M146.379303,403.100616 
	C146.379303,403.100616 146.468216,402.999237 147.019653,403.109802 
	C162.554230,403.220337 177.537369,403.220337 193.510361,403.220337 
	C186.680298,409.043274 180.709152,414.086823 174.789764,419.190369 
	C162.858414,429.477295 150.955170,439.796875 139.040344,450.102966 
	C138.267380,450.407074 137.494415,450.711151 135.901321,451.037842 
	C121.320465,451.090179 107.559189,451.179138 93.799866,451.052856 
	C92.502701,451.040955 91.217964,449.674927 89.927460,448.937622 
	C89.927467,448.937592 89.996338,448.995575 90.219406,449.298950 
	C91.291862,448.704407 92.141243,447.806458 92.990631,446.908508 
	C92.990639,446.908508 92.993721,446.991730 93.333275,447.062744 
	C94.097740,446.396729 94.522644,445.659668 94.947556,444.922607 
	C94.947556,444.922607 94.993774,444.996246 95.349197,445.124756 
	C95.788170,444.807617 95.871704,444.361908 95.955231,443.916229 
	C95.955231,443.916229 95.994080,443.994415 96.359726,444.156921 
	C96.800621,443.852112 96.875870,443.384766 96.951126,442.917419 
	C96.951118,442.917419 96.999634,443.000000 97.219872,443.305115 
	C98.289391,442.709747 99.138672,441.809204 99.987946,440.908661 
	C99.987946,440.908661 99.993134,440.991882 100.315186,441.050903 
	C100.748177,440.710602 100.859116,440.311310 100.970055,439.911987 
	C100.970047,439.911987 100.990891,439.991241 101.335724,440.089478 
	C101.773636,439.763367 101.866714,439.339050 101.959785,438.914734 
	C101.959785,438.914734 101.992722,438.993195 102.353813,439.131531 
	C102.794312,438.818909 102.873718,438.368011 102.953125,437.917084 
	C102.953125,437.917084 102.999756,437.999512 103.228775,438.286072 
	C103.977493,438.018982 104.497200,437.465332 105.016907,436.911652 
	C105.016899,436.911652 105.004311,437.002533 105.314468,437.009491 
	C106.073219,436.315430 106.521812,435.614410 106.970406,434.913361 
	C106.970398,434.913361 106.990234,434.991791 107.321503,435.063293 
	C107.757187,434.727509 107.861618,434.320221 107.966042,433.912903 
	C107.966042,433.912903 107.991493,433.991821 108.339638,434.105042 
	C108.778191,433.783875 108.868599,433.349487 108.959007,432.915100 
	C108.959007,432.915100 108.993034,432.993469 109.354431,433.137024 
	C109.794922,432.826050 109.874023,432.371521 109.953125,431.917023 
	C109.953133,431.917023 109.999687,432.000000 110.222755,432.294128 
	C111.295525,431.695099 112.145218,430.801941 112.994919,429.908783 
	C112.994911,429.908783 112.995750,429.993927 113.330154,430.048950 
	C114.093536,429.376160 114.522514,428.648376 114.951492,427.920593 
	C114.951492,427.920593 114.992882,427.995392 115.344101,428.113617 
	C115.782669,427.793121 115.870010,427.354370 115.957352,426.915649 
	C115.957359,426.915649 115.993500,426.993896 116.355850,427.145233 
	C116.796265,426.836670 116.874321,426.376801 116.952377,425.916901 
	C116.952377,425.916901 116.999634,426.000000 117.221985,426.297241 
	C118.293686,425.699158 119.143044,424.803864 119.992401,423.908569 
	C119.992393,423.908569 119.995148,423.993958 120.308075,424.038391 
	C120.738686,423.692291 120.856377,423.301727 120.974075,422.911163 
	C120.974075,422.911163 120.990547,422.990753 121.329300,423.075623 
	C121.766182,422.744965 121.864304,422.329468 121.962418,421.913940 
	C121.962418,421.913940 121.992134,421.992584 122.347878,422.119629 
	C122.787491,421.803162 122.871353,421.359680 122.955223,420.916168 
	C122.955223,420.916168 122.999931,420.999023 123.233261,421.278503 
	C124.638870,420.342041 125.811150,419.126099 126.983421,417.910126 
	C126.983421,417.910126 126.991760,417.991669 127.314476,418.046143 
	C127.747948,417.704468 127.858704,417.308319 127.969460,416.912140 
	C127.969460,416.912140 127.990982,416.991302 128.332443,417.091125 
	C128.769943,416.765289 128.865982,416.339691 128.962036,415.914062 
	C128.962036,415.914062 128.992340,415.992706 129.349091,416.124512 
	C129.788788,415.809570 129.871719,415.362885 129.954666,414.916168 
	C129.954666,414.916168 129.999756,414.999512 130.228699,415.282227 
	C130.977982,415.014160 131.498337,414.463379 132.018677,413.912598 
	C132.018677,413.912598 132.005386,414.003815 132.320099,413.999359 
	C133.407684,412.970032 134.180527,411.945190 134.953384,410.920319 
	C134.953384,410.920319 134.992050,410.995087 135.336365,411.098022 
	C135.773895,410.772125 135.867096,410.343353 135.960312,409.914551 
	C135.960312,409.914551 135.992737,409.993073 136.352325,410.131561 
	C136.792542,409.818939 136.873169,409.367859 136.953796,408.916748 
	C136.953796,408.916748 136.999756,408.999512 137.231720,409.290161 
	C138.956497,408.029205 140.449326,406.477600 141.942154,404.926025 
	C141.942154,404.926025 142.000000,404.999512 142.250610,405.263916 
	C143.003433,404.988007 143.505615,404.447693 144.007812,403.907379 
	C144.007797,403.907379 143.997971,403.990875 144.298859,404.106079 
	C145.192917,403.847717 145.786118,403.474152 146.379303,403.100616 
z"/>
<path fill="#FCFCFF" opacity="1.000000" stroke="none" 
	d="
M139.442413,450.046265 
	C150.955170,439.796875 162.858414,429.477295 174.789764,419.190369 
	C180.709152,414.086823 186.680298,409.043274 193.510361,403.220337 
	C177.537369,403.220337 162.554230,403.220337 147.071899,403.152435 
	C147.095886,402.729034 147.576172,402.229645 148.153961,402.057373 
	C148.766190,401.874908 149.471130,402.004364 150.135559,401.996002 
	C176.636093,401.662811 203.136551,401.082672 229.637161,401.075928 
	C249.984833,401.070740 270.332672,401.788147 290.881592,402.578461 
	C275.673615,402.972748 260.264526,402.972748 243.649078,402.972748 
	C256.009583,413.626678 267.508728,423.538177 279.001862,433.804047 
	C276.448547,434.440216 273.895294,434.998291 271.355286,434.943207 
	C266.825958,434.844940 262.304688,434.376190 257.933655,434.517151 
	C257.290802,434.518982 256.494354,434.066010 256.238708,433.361572 
	C256.899475,432.650360 257.054840,432.194397 257.104553,431.727173 
	C257.112854,431.649384 256.661133,431.522644 256.421997,431.418518 
	C256.315979,431.940582 256.209930,432.462646 256.103882,432.984711 
	C254.777634,432.275909 253.282791,431.769257 252.151993,430.826111 
	C243.667068,423.749451 235.253937,416.586731 225.800507,408.589874 
	C225.800507,412.760010 225.800507,415.933411 225.546387,419.554718 
	C225.292282,420.002625 224.962738,420.024353 224.962738,420.024353 
	C224.080017,418.416199 223.197311,416.808014 222.314606,415.199860 
	C222.163132,415.459961 222.011658,415.720032 221.860184,415.980133 
	C219.384918,414.458374 216.909637,412.936615 213.003922,410.535431 
	C213.003922,421.846375 213.056091,432.267670 212.951126,442.687439 
	C212.934189,444.369537 212.218048,446.044586 211.453094,447.889374 
	C211.081055,435.308014 211.081055,422.560181 211.081055,409.328766 
	C209.982147,410.125183 208.820602,410.851227 207.790405,411.731079 
	C193.258163,424.141632 178.751221,436.581848 164.213852,448.986359 
	C162.707352,450.271820 161.045471,451.375153 159.198883,452.244019 
	C159.317276,451.241638 159.692459,450.558228 160.304688,449.442993 
	C158.801865,449.686737 157.330261,449.473907 156.642914,450.109375 
	C151.776108,454.608704 147.090546,452.956665 142.279816,450.098694 
	C141.663834,449.732758 140.665604,450.010162 139.442413,450.046265 
z"/>
<path fill="#564BE6" opacity="1.000000" stroke="none" 
	d="
M718.898926,381.701172 
	C718.247681,388.019989 717.290039,393.897675 717.152100,399.794525 
	C716.866516,412.005157 715.221863,424.199799 716.520569,436.434692 
	C716.948853,440.469360 715.360535,441.965240 711.155701,441.993591 
	C697.788269,442.083557 697.530762,442.227661 698.042480,428.889404 
	C698.717468,411.294434 699.938721,393.720886 700.710449,376.128723 
	C700.874939,372.377930 702.454407,371.172455 705.903015,371.282959 
	C708.890381,371.378632 711.889465,371.285278 714.877136,371.144958 
	C717.809875,371.007172 719.318909,372.128601 719.030029,375.620117 
	C719.061584,377.773529 719.012634,379.521149 718.898926,381.701172 
M702.460510,398.589569 
	C702.547913,397.087494 702.635254,395.585419 702.722595,394.083344 
	C702.412476,394.062683 702.102295,394.042053 701.792175,394.021423 
	C701.285828,401.175079 700.779419,408.328735 700.273071,415.482422 
	C700.348694,415.489288 700.424377,415.496155 700.500000,415.503021 
	C701.210266,410.146210 701.920532,404.789429 702.460510,398.589569 
M705.458618,377.623993 
	C707.049683,374.148834 705.285706,373.747345 702.148682,374.217651 
	C702.148682,377.162689 702.148682,379.993988 702.148682,383.669464 
	C703.353088,381.363708 704.164795,379.809753 705.458618,377.623993 
z"/>
<path fill="#FCFCFF" opacity="1.000000" stroke="none" 
	d="
M417.054230,458.391693 
	C417.828186,457.927246 418.822083,457.786926 419.816010,457.786926 
	C519.638794,457.789398 619.461609,457.802460 719.766479,457.888367 
	C718.905457,458.309204 717.562622,458.960052 716.219482,458.960693 
	C617.229492,459.007812 518.239563,459.003845 419.249573,458.993958 
	C418.591125,458.993896 417.932648,458.855286 417.054230,458.391693 
z"/>
<path fill="#FBFAFE" opacity="1.000000" stroke="none" 
	d="
M160.030579,296.552734 
	C157.904694,295.904022 155.752213,294.885468 154.045395,294.077789 
	C154.045395,306.514618 154.045395,319.482880 154.057846,332.902710 
	C152.711639,330.714294 150.290329,328.117737 150.180450,325.426758 
	C149.733215,314.474213 149.994293,303.492767 149.994293,292.258545 
	C154.281464,291.626740 157.905319,291.868225 160.030579,296.552734 
z"/>
<path fill="#FCFCFF" opacity="1.000000" stroke="none" 
	d="
M153.584671,458.961487 
	C153.996796,472.045654 153.996796,485.170441 153.996796,498.279633 
	C154.868362,497.681549 156.167526,496.790039 157.831970,495.940430 
	C157.592224,499.138214 155.410385,500.867737 152.610245,499.776428 
	C151.262680,499.251282 150.167801,496.377441 150.110931,494.531677 
	C149.849930,486.061798 149.699295,477.563843 150.141220,469.109009 
	C150.319565,465.696533 152.113724,462.368530 153.584671,458.961487 
z"/>
<path fill="#FBFAFE" opacity="1.000000" stroke="none" 
	d="
M282.293030,336.081635 
	C286.276398,322.793793 283.365021,308.932190 284.104553,295.268860 
	C284.133209,294.739380 283.096191,294.152222 282.246704,293.260437 
	C282.116180,292.667999 282.283875,292.190521 282.475037,292.180969 
	C283.796112,292.114777 285.122070,292.146118 286.996338,292.146118 
	C286.996338,303.864349 287.277069,315.627289 286.797089,327.359161 
	C286.678497,330.258270 284.088531,333.056305 282.293030,336.081635 
z"/>
<path fill="#FBFAFE" opacity="1.000000" stroke="none" 
	d="
M282.133972,499.451416 
	C282.693420,497.933472 284.080109,496.799377 284.095612,495.646851 
	C284.235870,485.217804 284.246002,474.783112 284.018860,464.356079 
	C283.970673,462.145447 282.799561,459.959229 282.132690,457.370850 
	C282.742462,457.328339 283.824951,457.582794 283.918243,458.039398 
	C285.032745,463.492401 286.553589,468.943024 286.877106,474.458252 
	C287.369598,482.854462 287.006073,491.300934 287.006073,499.826721 
	C285.231812,499.826721 283.778534,499.826721 282.133972,499.451416 
z"/>
<path fill="#FBFAFE" opacity="1.000000" stroke="none" 
	d="
M136.803375,340.681885 
	C121.661362,341.098480 106.471054,341.098480 90.728249,341.098480 
	C91.744698,342.383545 92.514336,343.356598 93.121857,344.707062 
	C92.462502,345.035767 91.759087,345.179688 91.503143,344.905640 
	C90.283150,343.599457 89.184723,342.179718 88.043045,340.800354 
	C89.749794,340.198212 91.449387,339.099396 93.164444,339.074707 
	C104.153519,338.916412 115.147446,338.892670 126.136475,339.052338 
	C129.681137,339.103790 133.215836,339.841522 136.803375,340.681885 
z"/>
<path fill="#FBFAFE" opacity="1.000000" stroke="none" 
	d="
M89.509644,448.972198 
	C91.217964,449.674927 92.502701,451.040955 93.799866,451.052856 
	C107.559189,451.179138 121.320465,451.090179 135.550629,451.088196 
	C135.507065,451.389679 134.994720,451.901184 134.480972,451.902588 
	C119.084412,451.945099 103.687698,451.937195 87.512360,451.937195 
	C88.206825,450.648743 88.649330,449.827759 89.509644,448.972198 
z"/>
<path fill="#FBFAFE" opacity="1.000000" stroke="none" 
	d="
M225.010101,420.489044 
	C224.962738,420.024353 225.292282,420.002625 225.457336,419.997681 
	C225.698395,426.434906 225.509140,432.895142 225.947159,439.312592 
	C226.222198,443.341888 227.439011,447.306885 228.101440,451.693237 
	C226.979370,449.851074 225.228165,447.647400 225.135941,445.376312 
	C224.805878,437.247803 225.037994,429.096436 225.010101,420.489044 
z"/>
<path fill="#FBFAFE" opacity="1.000000" stroke="none" 
	d="
M165.943359,301.602875 
	C163.853745,300.440002 161.655060,298.961670 159.765015,297.210876 
	C161.993866,298.388092 163.914093,299.837769 165.943359,301.602875 
z"/>
<path fill="#FBFAFE" opacity="1.000000" stroke="none" 
	d="
M141.601593,404.958740 
	C140.449326,406.477600 138.956497,408.029205 137.203186,409.252411 
	C138.382156,407.613159 139.821594,406.302307 141.601593,404.958740 
z"/>
<path fill="#FBFAFE" opacity="1.000000" stroke="none" 
	d="
M278.613770,295.950989 
	C277.804535,297.133545 276.629211,298.356567 275.198181,299.251862 
	C276.044220,297.946594 277.145935,296.969055 278.613770,295.950989 
z"/>
<path fill="#FBFAFE" opacity="1.000000" stroke="none" 
	d="
M174.031784,308.560852 
	C172.658997,308.168640 171.259293,307.412781 169.941254,306.283875 
	C171.350235,306.672974 172.677551,307.435120 174.031784,308.560852 
z"/>
<path fill="#FBFAFE" opacity="1.000000" stroke="none" 
	d="
M94.048782,346.388245 
	C95.317940,346.830231 96.697128,347.588440 98.031113,348.718384 
	C96.710205,348.294922 95.434509,347.499695 94.048782,346.388245 
z"/>
<path fill="#FBFAFE" opacity="1.000000" stroke="none" 
	d="
M178.943222,312.602661 
	C177.579117,312.156342 176.106995,311.395721 174.842453,310.277771 
	C176.311752,310.709778 177.573486,311.499054 178.943222,312.602661 
z"/>
<path fill="#FBFAFE" opacity="1.000000" stroke="none" 
	d="
M275.053894,493.393524 
	C276.353943,493.831726 277.763275,494.585266 279.073242,495.713623 
	C277.703644,495.295227 276.433441,494.502045 275.053894,493.393524 
z"/>
<path fill="#FBFAFE" opacity="1.000000" stroke="none" 
	d="
M136.054810,382.395264 
	C137.382416,382.835449 138.818695,383.590576 140.108826,384.715485 
	C138.696289,384.293579 137.429901,383.501892 136.054810,382.395264 
z"/>
<path fill="#FBFAFE" opacity="1.000000" stroke="none" 
	d="
M126.645271,417.949982 
	C125.811150,419.126099 124.638870,420.342041 123.203766,421.241943 
	C124.063004,419.947174 125.185059,418.968506 126.645271,417.949982 
z"/>
<path fill="#FBFAFE" opacity="1.000000" stroke="none" 
	d="
M271.619568,301.952362 
	C271.198578,302.901276 270.426910,303.888519 269.314423,304.880859 
	C269.738678,303.920868 270.503784,302.955750 271.619568,301.952362 
z"/>
<path fill="#FBFAFE" opacity="1.000000" stroke="none" 
	d="
M134.597992,410.955902 
	C134.180527,411.945190 133.407684,412.970032 132.274048,413.997223 
	C132.689713,412.996857 133.466141,411.994171 134.597992,410.955902 
z"/>
<path fill="#FBFAFE" opacity="1.000000" stroke="none" 
	d="
M278.952332,496.384521 
	C280.127533,496.857880 281.341187,497.684082 282.240845,498.785950 
	C280.948151,498.286865 279.969452,497.512115 278.952332,496.384521 
z"/>
<path fill="#FBFAFE" opacity="1.000000" stroke="none" 
	d="
M191.926239,324.825806 
	C190.760880,324.297272 189.661911,323.397705 188.812729,322.214478 
	C190.039215,322.772156 191.015930,323.613464 191.926239,324.825806 
z"/>
<path fill="#FBFAFE" opacity="1.000000" stroke="none" 
	d="
M268.975037,487.440430 
	C270.030701,487.865387 271.109406,488.641479 272.079346,489.751892 
	C270.979736,489.321289 269.988892,488.556396 268.975037,487.440430 
z"/>
<path fill="#FBFAFE" opacity="1.000000" stroke="none" 
	d="
M281.576904,292.964539 
	C281.175476,294.017303 280.421509,295.098297 279.290039,296.076813 
	C279.683136,294.980499 280.453766,293.986633 281.576904,292.964539 
z"/>
<path fill="#FCFCFF" opacity="1.000000" stroke="none" 
	d="
M227.622650,340.044495 
	C227.524902,341.281738 227.092636,342.643677 226.283173,344.000031 
	C226.366684,342.719360 226.827408,341.444244 227.622650,340.044495 
z"/>
<path fill="#FBFAFE" opacity="1.000000" stroke="none" 
	d="
M141.059662,386.399994 
	C142.204895,386.514984 143.473419,386.961182 144.845764,387.759644 
	C143.694046,387.651642 142.438492,387.191437 141.059662,386.399994 
z"/>
<path fill="#FBFAFE" opacity="1.000000" stroke="none" 
	d="
M119.661179,423.949036 
	C119.143044,424.803864 118.293686,425.699158 117.194656,426.257874 
	C117.739983,425.277405 118.534973,424.633453 119.661179,423.949036 
z"/>
<path fill="#FBFAFE" opacity="1.000000" stroke="none" 
	d="
M112.663498,429.949524 
	C112.145218,430.801941 111.295525,431.695099 110.195160,432.255310 
	C110.740349,431.278351 111.536209,430.634308 112.663498,429.949524 
z"/>
<path fill="#FBFAFE" opacity="1.000000" stroke="none" 
	d="
M99.657288,440.949097 
	C99.138672,441.809204 98.289391,442.709747 97.193222,443.265076 
	C97.739761,442.276489 98.533188,441.633026 99.657288,440.949097 
z"/>
<path fill="#FBFAFE" opacity="1.000000" stroke="none" 
	d="
M92.659569,446.949005 
	C92.141243,447.806458 91.291862,448.704407 90.194031,449.261749 
	C90.739891,448.277252 91.534203,447.633362 92.659569,446.949005 
z"/>
<path fill="#FCFCFF" opacity="1.000000" stroke="none" 
	d="
M297.949310,406.611084 
	C297.002563,406.517548 295.948242,406.111877 294.955872,405.307007 
	C295.959137,405.371552 296.900421,405.835266 297.949310,406.611084 
z"/>
<path fill="#FCFCFF" opacity="1.000000" stroke="none" 
	d="
M260.397675,436.460175 
	C259.426514,436.411835 258.625244,436.024384 257.925110,435.274353 
	C258.873352,435.314911 259.720459,435.717987 260.397675,436.460175 
z"/>
<path fill="#FBFAFE" opacity="1.000000" stroke="none" 
	d="
M169.047119,304.610657 
	C168.216721,304.496399 167.348083,304.029755 166.773132,303.247620 
	C167.714172,303.374146 168.361542,303.816223 169.047119,304.610657 
z"/>
<path fill="#FCFCFF" opacity="1.000000" stroke="none" 
	d="
M301.931580,410.921753 
	C301.109985,410.712555 300.346039,410.117188 299.820312,409.224884 
	C300.702118,409.463806 301.345703,409.999695 301.931580,410.921753 
z"/>
<path fill="#FBFAFE" opacity="1.000000" stroke="none" 
	d="
M106.612251,434.952393 
	C106.521812,435.614410 106.073219,436.315430 105.268692,437.006531 
	C105.359863,436.328217 105.806976,435.659821 106.612251,434.952393 
z"/>
<path fill="#FBFAFE" opacity="1.000000" stroke="none" 
	d="
M94.592682,444.957306 
	C94.522644,445.659668 94.097740,446.396729 93.292038,447.056976 
	C93.353432,446.317444 93.795624,445.654724 94.592682,444.957306 
z"/>
<path fill="#FCFCFF" opacity="1.000000" stroke="none" 
	d="
M154.954590,336.394043 
	C155.694504,336.480316 156.473221,336.920502 157.107635,337.723083 
	C156.306686,337.639648 155.650040,337.193817 154.954590,336.394043 
z"/>
<path fill="#FBFAFE" opacity="1.000000" stroke="none" 
	d="
M129.957825,376.415588 
	C130.662140,376.511566 131.400818,376.960968 132.058167,377.749084 
	C131.315292,377.648193 130.653748,377.208649 129.957825,376.415588 
z"/>
<path fill="#FBFAFE" opacity="1.000000" stroke="none" 
	d="
M114.595947,427.956238 
	C114.522514,428.648376 114.093536,429.376160 113.287865,430.044128 
	C113.354240,429.320160 113.797318,428.656036 114.595947,427.956238 
z"/>
<path fill="#FBFAFE" opacity="1.000000" stroke="none" 
	d="
M273.592987,299.957275 
	C273.522125,300.669586 273.096802,301.416595 272.291595,302.069855 
	C272.353973,301.314697 272.796234,300.653351 273.592987,299.957275 
z"/>
<path fill="#FBFAFE" opacity="1.000000" stroke="none" 
	d="
M103.107117,353.137207 
	C103.439529,353.388550 103.902733,353.848083 104.462456,354.536438 
	C104.118614,354.291962 103.678268,353.818665 103.107117,353.137207 
z"/>
<path fill="#FCFCFF" opacity="1.000000" stroke="none" 
	d="
M293.917755,403.589905 
	C293.115662,403.843750 292.179382,403.767731 291.108948,403.300598 
	C291.911041,403.026367 292.847321,403.143219 293.917755,403.589905 
z"/>
<path fill="#FCFCFF" opacity="1.000000" stroke="none" 
	d="
M154.588623,456.083527 
	C154.825333,456.853790 154.731400,457.759369 154.279266,458.850891 
	C154.033371,458.097504 154.145660,457.158173 154.588623,456.083527 
z"/>
<path fill="#FBFAFE" opacity="1.000000" stroke="none" 
	d="
M131.697769,413.955292 
	C131.498337,414.463379 130.977982,415.014160 130.199982,415.244598 
	C130.420517,414.615509 130.898682,414.306732 131.697769,413.955292 
z"/>
<path fill="#FCFCFF" opacity="1.000000" stroke="none" 
	d="
M344.268707,345.133820 
	C344.467590,344.628540 344.977661,344.010162 345.773254,343.733917 
	C345.565765,344.390930 345.072815,344.705811 344.268707,345.133820 
z"/>
<path fill="#FBFAFE" opacity="1.000000" stroke="none" 
	d="
M104.696106,436.953369 
	C104.497200,437.465332 103.977493,438.018982 103.200302,438.248260 
	C103.420311,437.614258 103.897812,437.304657 104.696106,436.953369 
z"/>
<path fill="#FCFCFF" opacity="1.000000" stroke="none" 
	d="
M261.941986,437.602600 
	C261.402740,437.821350 260.745239,437.716309 260.116425,437.181580 
	C260.704651,436.927551 261.264191,437.103180 261.941986,437.602600 
z"/>
<path fill="#FBFAFE" opacity="1.000000" stroke="none" 
	d="
M143.687073,403.950745 
	C143.505615,404.447693 143.003433,404.988007 142.219055,405.229553 
	C142.413345,404.618530 142.889832,404.306305 143.687073,403.950745 
z"/>
<path fill="#FCFCFF" opacity="1.000000" stroke="none" 
	d="
M262.903229,439.617035 
	C262.388367,439.405060 261.934143,438.886719 261.779541,438.157471 
	C262.374084,438.401245 262.668976,438.855957 262.903229,439.617035 
z"/>
<path fill="#FCFCFF" opacity="1.000000" stroke="none" 
	d="
M144.956039,345.626282 
	C144.433487,345.843994 143.808060,345.762115 143.110840,345.284485 
	C143.643753,345.034698 144.248459,345.180664 144.956039,345.626282 
z"/>
<path fill="#FBFAFE" opacity="1.000000" stroke="none" 
	d="
M146.005692,403.065552 
	C145.786118,403.474152 145.192917,403.847717 144.258270,404.095093 
	C144.488556,403.656128 145.060318,403.343323 146.005692,403.065552 
z"/>
<path fill="#FBFAFE" opacity="1.000000" stroke="none" 
	d="
M101.045654,352.376709 
	C101.568985,352.156677 102.196121,352.238434 102.900948,352.718018 
	C102.368919,352.970062 101.759193,352.824310 101.045654,352.376709 
z"/>
<path fill="#FBFAFE" opacity="1.000000" stroke="none" 
	d="
M185.949417,318.616852 
	C185.391891,318.867126 184.729446,318.814911 184.032349,318.334686 
	C184.613312,318.042572 185.228897,318.178467 185.949417,318.616852 
z"/>
<path fill="#FCFCFF" opacity="1.000000" stroke="none" 
	d="
M154.061646,333.988190 
	C154.551163,334.233185 154.996384,334.847565 155.190964,335.766052 
	C154.632675,335.499329 154.325012,334.928436 154.061646,333.988190 
z"/>
<path fill="#FBFAFE" opacity="1.000000" stroke="none" 
	d="
M228.009369,452.332153 
	C228.428757,452.149231 228.930313,452.246338 229.570587,452.609436 
	C229.170044,452.787720 228.630798,452.699921 228.009369,452.332153 
z"/>
<path fill="#FBFAFE" opacity="1.000000" stroke="none" 
	d="
M135.696854,409.984741 
	C135.867096,410.343353 135.773895,410.772125 135.296173,411.085510 
	C135.085587,410.665009 135.259491,410.359985 135.696854,409.984741 
z"/>
<path fill="#FBFAFE" opacity="1.000000" stroke="none" 
	d="
M271.978943,490.286682 
	C272.341919,490.138489 272.773499,490.257263 273.086426,490.731750 
	C272.661041,490.909515 272.354309,490.731598 271.978943,490.286682 
z"/>
<path fill="#FCFCFF" opacity="1.000000" stroke="none" 
	d="
M155.702911,454.982208 
	C155.868271,455.385406 155.772385,455.858063 155.296478,456.142090 
	C155.091522,455.652863 155.266586,455.352264 155.702911,454.982208 
z"/>
<path fill="#FCFCFF" opacity="1.000000" stroke="none" 
	d="
M156.703857,453.982239 
	C156.865921,454.361755 156.765045,454.811401 156.289032,455.111389 
	C156.089584,454.658600 156.265244,454.355469 156.703857,453.982239 
z"/>
<path fill="#FBFAFE" opacity="1.000000" stroke="none" 
	d="
M115.694962,426.985474 
	C115.870010,427.354370 115.782669,427.793121 115.303894,428.099152 
	C115.085831,427.662720 115.259209,427.359009 115.694962,426.985474 
z"/>
<path fill="#FCFCFF" opacity="1.000000" stroke="none" 
	d="
M157.699768,452.984344 
	C157.866928,453.349548 157.771179,453.785339 157.293793,454.093994 
	C157.087051,453.662872 157.261963,453.358887 157.699768,452.984344 
z"/>
<path fill="#FBFAFE" opacity="1.000000" stroke="none" 
	d="
M273.982758,492.300293 
	C274.392670,492.129486 274.871399,492.219452 275.151123,492.696136 
	C274.651978,492.908905 274.351746,492.734955 273.982758,492.300293 
z"/>
<path fill="#FCFCFF" opacity="1.000000" stroke="none" 
	d="
M158.694778,451.986389 
	C158.871521,452.362793 158.787109,452.809692 158.307953,453.110229 
	C158.086670,452.661530 158.260147,452.359192 158.694778,451.986389 
z"/>
<path fill="#FBFAFE" opacity="1.000000" stroke="none" 
	d="
M109.692413,431.986511 
	C109.874023,432.371521 109.794922,432.826050 109.314850,433.120911 
	C109.086487,432.659546 109.259094,432.357788 109.692413,431.986511 
z"/>
<path fill="#FBFAFE" opacity="1.000000" stroke="none" 
	d="
M108.696129,432.985077 
	C108.868599,433.349487 108.778191,433.783875 108.299942,434.093079 
	C108.085815,433.663605 108.259529,433.359314 108.696129,432.985077 
z"/>
<path fill="#FBFAFE" opacity="1.000000" stroke="none" 
	d="
M272.980408,491.293640 
	C273.372681,491.134033 273.833679,491.237762 274.126068,491.712952 
	C273.654724,491.908569 273.351929,491.732788 272.980408,491.293640 
z"/>
<path fill="#FBFAFE" opacity="1.000000" stroke="none" 
	d="
M107.700310,433.983704 
	C107.861618,434.320221 107.757187,434.727509 107.281586,435.056671 
	C107.085136,434.670502 107.259857,434.362518 107.700310,433.983704 
z"/>
<path fill="#FBFAFE" opacity="1.000000" stroke="none" 
	d="
M274.693237,298.986176 
	C274.872498,299.364380 274.790405,299.812195 274.310760,300.111725 
	C274.086121,299.660889 274.259003,299.358337 274.693237,298.986176 
z"/>
<path fill="#FBFAFE" opacity="1.000000" stroke="none" 
	d="
M95.693634,443.985901 
	C95.871704,444.361908 95.788170,444.807617 95.308823,445.108643 
	C95.086021,444.661194 95.259026,444.358398 95.693634,443.985901 
z"/>
<path fill="#FBFAFE" opacity="1.000000" stroke="none" 
	d="
M96.691368,442.986511 
	C96.875870,443.384766 96.800621,443.852112 96.320282,444.138245 
	C96.087334,443.656555 96.259468,443.356110 96.691368,442.986511 
z"/>
<path fill="#FBFAFE" opacity="1.000000" stroke="none" 
	d="
M100.703049,439.982910 
	C100.859116,440.311310 100.748177,440.710602 100.273773,441.046021 
	C100.085541,440.672668 100.260788,440.363220 100.703049,439.982910 
z"/>
<path fill="#FBFAFE" opacity="1.000000" stroke="none" 
	d="
M101.696198,438.985107 
	C101.866714,439.339050 101.773636,439.763367 101.295929,440.079712 
	C101.085075,439.666351 101.258850,439.360901 101.696198,438.985107 
z"/>
<path fill="#FBFAFE" opacity="1.000000" stroke="none" 
	d="
M102.692200,437.986603 
	C102.873718,438.368011 102.794312,438.818909 102.314171,439.116089 
	C102.086052,438.660248 102.258667,438.358185 102.692200,437.986603 
z"/>
<path fill="#FBFAFE" opacity="1.000000" stroke="none" 
	d="
M99.982147,351.298462 
	C100.380692,351.132019 100.848061,351.227356 101.135284,351.703186 
	C100.653740,351.909180 100.352348,351.734711 99.982147,351.298462 
z"/>
<path fill="#FBFAFE" opacity="1.000000" stroke="none" 
	d="
M139.980743,385.294189 
	C140.363754,385.135315 140.815704,385.240112 141.113678,385.715088 
	C140.656342,385.909485 140.352997,385.733673 139.980743,385.294189 
z"/>
<path fill="#FBFAFE" opacity="1.000000" stroke="none" 
	d="
M184.021179,317.714844 
	C183.664658,317.860107 183.239700,317.737640 182.922638,317.263672 
	C183.337921,317.090515 183.645340,317.268829 184.021179,317.714844 
z"/>
<path fill="#FBFAFE" opacity="1.000000" stroke="none" 
	d="
M134.983978,381.303925 
	C135.397583,381.127960 135.879852,381.211731 136.156311,381.688965 
	C135.651230,381.909515 135.351944,381.736572 134.983978,381.303925 
z"/>
<path fill="#FBFAFE" opacity="1.000000" stroke="none" 
	d="
M133.981873,380.298340 
	C134.383377,380.132202 134.853592,380.227631 135.138733,380.703247 
	C134.652649,380.908936 134.351624,380.734436 133.981873,380.298340 
z"/>
<path fill="#FBFAFE" opacity="1.000000" stroke="none" 
	d="
M132.980499,379.293213 
	C133.358368,379.136047 133.805161,379.243103 134.106689,379.718079 
	C133.657410,379.909790 133.353424,379.733612 132.980499,379.293213 
z"/>
<path fill="#FBFAFE" opacity="1.000000" stroke="none" 
	d="
M131.978622,378.284485 
	C132.336380,378.139862 132.762451,378.263000 133.078812,378.736877 
	C132.661713,378.909180 132.354324,378.730743 131.978622,378.284485 
z"/>
<path fill="#FBFAFE" opacity="1.000000" stroke="none" 
	d="
M187.014130,319.692047 
	C186.595001,319.876007 186.107269,319.801422 185.835083,319.322266 
	C186.348923,319.089661 186.647232,319.261566 187.014130,319.692047 
z"/>
<path fill="#FBFAFE" opacity="1.000000" stroke="none" 
	d="
M188.016296,320.697113 
	C187.599335,320.871857 187.113785,320.786865 186.839432,320.309937 
	C187.349655,320.091156 187.648697,320.264252 188.016296,320.697113 
z"/>
<path fill="#FBFAFE" opacity="1.000000" stroke="none" 
	d="
M189.018219,321.702332 
	C188.618835,321.867584 188.150726,321.770935 187.864029,321.295349 
	C188.346802,321.091095 188.648148,321.265747 189.018219,321.702332 
z"/>
<path fill="#FBFAFE" opacity="1.000000" stroke="none" 
	d="
M145.064896,388.077362 
	C144.884064,388.194641 144.945648,388.410736 145.368134,388.640106 
	C145.333618,388.606445 145.193039,388.447388 145.064896,388.077362 
z"/>
<path fill="#FBFAFE" opacity="1.000000" stroke="none" 
	d="
M98.979797,350.291229 
	C99.359924,350.136597 99.808792,350.246521 100.109238,350.720947 
	C99.656723,350.908905 99.352631,350.732361 98.979797,350.291229 
z"/>
<path fill="#FBFAFE" opacity="1.000000" stroke="none" 
	d="
M97.978638,349.283752 
	C98.329033,349.140900 98.747795,349.266541 99.069214,349.740295 
	C98.663574,349.909668 98.355301,349.730957 97.978638,349.283752 
z"/>
<path fill="#FBFAFE" opacity="1.000000" stroke="none" 
	d="
M92.981117,345.296021 
	C93.377571,345.133545 93.842712,345.233490 94.131653,345.708618 
	C93.653564,345.908661 93.351677,345.733582 92.981117,345.296021 
z"/>
<path fill="#FCFCFF" opacity="1.000000" stroke="none" 
	d="
M346.307373,344.013306 
	C346.125916,343.616272 346.203796,343.149353 346.683197,342.863159 
	C346.912048,343.343689 346.739349,343.643555 346.307373,344.013306 
z"/>
<path fill="#FCFCFF" opacity="1.000000" stroke="none" 
	d="
M156.981125,338.292908 
	C157.361359,338.135254 157.811401,338.241241 158.111435,338.716492 
	C157.657928,338.909363 157.354431,338.732971 156.981125,338.292908 
z"/>
<path fill="#FCFCFF" opacity="1.000000" stroke="none" 
	d="
M229.977615,338.086975 
	C230.044571,338.488495 229.796295,338.851532 229.231888,339.090454 
	C229.164627,338.660370 229.413498,338.354431 229.977615,338.086975 
z"/>
<path fill="#FCFCFF" opacity="1.000000" stroke="none" 
	d="
M158.984543,340.303040 
	C159.395660,340.127441 159.876312,340.211426 160.154419,340.689240 
	C159.652603,340.909546 159.353348,340.736084 158.984543,340.303040 
z"/>
<path fill="#FCFCFF" opacity="1.000000" stroke="none" 
	d="
M157.982635,339.297791 
	C158.382294,339.131256 158.851440,339.226074 159.137695,339.702454 
	C158.653915,339.909058 158.353027,339.734070 157.982635,339.297791 
z"/>
<path fill="#FBFAFE" opacity="1.000000" stroke="none" 
	d="
M136.692719,408.986267 
	C136.873169,409.367859 136.792542,409.818939 136.312729,410.116180 
	C136.086258,409.660126 136.258957,409.357971 136.692719,408.986267 
z"/>
<path fill="#FBFAFE" opacity="1.000000" stroke="none" 
	d="
M120.705765,422.982117 
	C120.856377,423.301727 120.738686,423.692291 120.265556,424.034302 
	C120.085892,423.674896 120.261673,423.363983 120.705765,422.982117 
z"/>
<path fill="#FBFAFE" opacity="1.000000" stroke="none" 
	d="
M121.697830,421.984558 
	C121.864304,422.329468 121.766182,422.744965 121.289413,423.067841 
	C121.084930,422.668518 121.259087,422.361816 121.697830,421.984558 
z"/>
<path fill="#FBFAFE" opacity="1.000000" stroke="none" 
	d="
M122.693497,420.985962 
	C122.871353,421.359680 122.787491,421.803162 122.308205,422.105713 
	C122.085785,421.661774 122.258774,421.358734 122.693497,420.985962 
z"/>
<path fill="#FBFAFE" opacity="1.000000" stroke="none" 
	d="
M127.702385,416.983215 
	C127.858704,417.308319 127.747948,417.704468 127.273705,418.042053 
	C127.085251,417.673706 127.260277,417.363983 127.702385,416.983215 
z"/>
<path fill="#FBFAFE" opacity="1.000000" stroke="none" 
	d="
M128.698090,415.984283 
	C128.865982,416.339691 128.769943,416.765289 128.292679,417.081055 
	C128.085693,416.665619 128.259933,416.360046 128.698090,415.984283 
z"/>
<path fill="#FBFAFE" opacity="1.000000" stroke="none" 
	d="
M167.015594,302.695648 
	C166.598434,302.873291 166.112762,302.791473 165.838730,302.313782 
	C166.349274,302.090637 166.648178,302.263397 167.015594,302.695648 
z"/>
<path fill="#FBFAFE" opacity="1.000000" stroke="none" 
	d="
M129.693207,414.985931 
	C129.871719,415.362885 129.788788,415.809570 129.309509,416.110077 
	C129.086029,415.661133 129.258896,415.358429 129.693207,414.985931 
z"/>
<path fill="#FCFCFF" opacity="1.000000" stroke="none" 
	d="
M228.712463,338.980408 
	C228.860184,339.325653 228.740372,339.741089 228.265732,340.066010 
	C228.088913,339.667206 228.266922,339.358948 228.712463,338.980408 
z"/>
<path fill="#FBFAFE" opacity="1.000000" stroke="none" 
	d="
M170.020599,305.711792 
	C169.661224,305.860718 169.232941,305.742920 168.918182,305.268738 
	C169.338364,305.089935 169.645035,305.267517 170.020599,305.711792 
z"/>
<path fill="#FBFAFE" opacity="1.000000" stroke="none" 
	d="
M116.691986,425.986267 
	C116.874321,426.376801 116.796265,426.836670 116.316338,427.128052 
	C116.086845,426.658234 116.259224,426.356903 116.691986,425.986267 
z"/>
<path fill="#FCFCFF" opacity="1.000000" stroke="none" 
	d="
M300.017944,408.703888 
	C299.622375,408.868195 299.157074,408.770355 298.867371,408.294006 
	C299.344727,408.090881 299.646484,408.266327 300.017944,408.703888 
z"/>
<path fill="#FCFCFF" opacity="1.000000" stroke="none" 
	d="
M299.016235,407.699066 
	C298.606628,407.872040 298.127441,407.784729 297.847595,407.307068 
	C298.346863,407.090729 298.646759,407.264771 299.016235,407.699066 
z"/>
<path fill="#FCFCFF" opacity="1.000000" stroke="none" 
	d="
M295.020813,404.711426 
	C294.609985,404.865692 294.130554,404.756989 293.849792,404.283112 
	C294.349731,404.094788 294.650970,404.271637 295.020813,404.711426 
z"/>
<path fill="#FBFAFE" opacity="1.000000" stroke="none" 
	d="
M175.017822,309.701080 
	C174.612717,309.868652 174.138962,309.774902 173.856079,309.299133 
	C174.347687,309.091309 174.648407,309.265533 175.017822,309.701080 
z"/>
<path fill="#FBFAFE" opacity="1.000000" stroke="none" 
	d="
M180.014435,313.692627 
	C179.594376,313.875763 179.105865,313.800140 178.834137,313.321167 
	C179.349274,313.089844 179.647629,313.261871 180.014435,313.692627 
z"/>
<path fill="#FBFAFE" opacity="1.000000" stroke="none" 
	d="
M181.016083,314.696655 
	C180.602798,314.872192 180.121002,314.787811 179.844284,314.310486 
	C180.348755,314.090607 180.648148,314.263672 181.016083,314.696655 
z"/>
<path fill="#FBFAFE" opacity="1.000000" stroke="none" 
	d="
M182.017700,315.700745 
	C181.617828,315.868347 181.149124,315.774384 180.862823,315.298401 
	C181.346451,315.090668 181.647659,315.264923 182.017700,315.700745 
z"/>
<path fill="#FBFAFE" opacity="1.000000" stroke="none" 
	d="
M183.019745,316.707214 
	C182.637451,316.864105 182.186371,316.756958 181.887665,316.282227 
	C182.343704,316.090820 182.647324,316.266968 183.019745,316.707214 
z"/>
<path fill="#5448E6" opacity="1.000000" stroke="none" 
	d="
M685.265076,392.766968 
	C688.095093,408.042999 690.782837,422.916626 693.598511,437.765991 
	C694.182190,440.844086 693.306519,442.139252 690.114990,442.027771 
	C686.458557,441.900116 682.777344,441.779449 679.138245,442.060913 
	C675.571106,442.336792 674.364746,440.658112 674.226135,437.474518 
	C674.096619,434.501556 673.856995,431.533386 673.615173,427.774353 
	C668.801636,428.822784 664.199219,429.387146 659.984802,430.978943 
	C658.493896,431.542023 657.461487,434.519287 657.077271,436.556183 
	C656.339233,440.468750 654.742676,442.439270 650.437744,441.878479 
	C647.322327,441.472656 644.123169,441.737854 640.963623,441.633789 
	C638.163940,441.541565 636.423828,440.647766 637.607544,437.305939 
	C644.808167,416.978271 651.862732,396.598083 659.199280,376.319824 
	C661.023132,371.278717 666.194397,372.748688 670.049805,372.122711 
	C674.766724,371.356812 678.882690,373.099487 680.714355,377.640961 
	C682.623596,382.374664 683.717651,387.437164 685.265076,392.766968 
M664.950623,412.930847 
	C666.882629,412.930847 668.814636,412.930847 671.293884,412.930847 
	C670.441406,407.713501 669.687378,403.098389 668.933289,398.483276 
	C668.580017,398.442688 668.226746,398.402100 667.873474,398.361511 
	C666.637878,403.099396 665.402283,407.837311 664.950623,412.930847 
M684.093079,433.355103 
	C684.855408,434.756470 685.617737,436.157837 686.380066,437.559235 
	C686.767517,437.410461 687.155029,437.261688 687.542480,437.112915 
	C686.383728,432.961304 685.224915,428.809692 684.066101,424.658081 
	C683.514343,424.805603 682.962524,424.953156 682.410767,425.100677 
	C682.292725,427.723267 678.971008,430.722443 684.093079,433.355103 
z"/>
<path fill="#5448E6" opacity="1.000000" stroke="none" 
	d="
M482.264343,373.070801 
	C484.485443,372.677582 486.273254,372.217224 488.088074,372.050385 
	C506.125397,370.392273 514.657837,377.165649 516.332581,395.311646 
	C517.519592,408.172394 514.227539,420.027832 506.177582,430.400360 
	C499.589508,438.889221 490.687012,441.871887 480.322357,442.028992 
	C467.652283,442.221069 467.481018,442.341949 468.067017,429.718750 
	C468.839355,413.082153 469.989746,396.463257 470.799103,379.828064 
	C470.949280,376.741394 472.090698,375.316071 475.078125,374.860413 
	C477.367523,374.511169 479.590881,373.729309 482.264343,373.070801 
M484.242432,423.157104 
	C487.295288,421.914642 491.486633,421.532196 493.193359,419.272827 
	C498.930023,411.678680 501.775269,403.011871 498.982361,393.274475 
	C497.719269,388.870728 495.028687,387.882263 490.671906,388.571777 
	C486.341187,389.257202 485.268463,391.186493 485.870850,395.299744 
	C486.269684,398.023163 485.616272,400.901306 485.429138,403.709869 
	C485.014465,409.932373 484.596802,416.154663 484.242432,423.157104 
z"/>
<path fill="#5448E6" opacity="1.000000" stroke="none" 
	d="
M522.798889,385.842834 
	C523.459534,374.687134 521.170959,376.387268 532.604614,373.623260 
	C535.979797,372.807312 539.460144,372.132324 542.916199,371.994629 
	C559.321289,371.341095 567.643188,378.817200 568.779968,395.365295 
	C569.503174,405.893555 567.343872,415.916046 562.068604,425.131836 
	C555.542725,436.532379 545.752747,442.058929 532.500244,442.063202 
	C519.455627,442.067444 519.441833,442.339020 520.214417,429.190491 
	C521.054260,414.894928 521.923340,400.601074 522.798889,385.842834 
M537.891541,402.272064 
	C537.305725,409.482300 536.719910,416.692505 536.097107,424.358582 
	C547.853699,421.029602 554.765198,406.273895 551.517517,394.285309 
	C550.438660,390.303070 548.723389,387.778992 543.923157,388.351685 
	C539.138184,388.922607 537.101318,390.939331 538.069702,395.863373 
	C538.413086,397.609314 537.998047,399.504425 537.891541,402.272064 
z"/>
<path fill="#5448E6" opacity="1.000000" stroke="none" 
	d="
M448.348633,373.634583 
	C452.851135,373.001404 457.133209,372.539093 461.400085,372.652039 
	C462.355408,372.677368 464.094482,374.746979 464.057465,375.826935 
	C463.550140,390.625549 463.615570,405.512299 461.888702,420.182953 
	C459.800476,437.923187 439.951660,447.736298 423.711182,439.922333 
	C416.674957,436.536896 415.025482,429.781952 415.175720,423.074432 
	C415.477142,409.618774 416.334503,396.150574 417.614105,382.749786 
	C418.633972,372.069672 419.062561,372.258911 429.699890,372.318878 
	C433.982941,372.343018 435.136200,373.928772 434.742432,378.065155 
	C433.638397,389.662689 432.868500,401.292328 432.012390,412.912689 
	C431.878143,414.734924 431.458252,416.788391 432.098053,418.356384 
	C433.061096,420.716553 434.918549,424.578430 436.259918,424.522858 
	C438.922272,424.412567 442.427856,422.674072 443.855743,420.482056 
	C445.525818,417.918182 445.687256,414.176453 445.917389,410.904480 
	C446.781799,398.616516 447.407593,386.311768 448.348633,373.634583 
z"/>
<path fill="#5448E6" opacity="1.000000" stroke="none" 
	d="
M605.572266,418.956268 
	C604.957886,425.454193 604.388855,431.573853 604.164795,437.706146 
	C604.057861,440.632202 603.079224,442.048279 600.060730,441.902283 
	C598.235474,441.813995 596.400635,441.926514 594.570068,441.946716 
	C586.419250,442.036682 585.921143,441.954407 587.275879,433.724915 
	C588.522034,426.155243 587.177490,419.394257 584.427124,412.426422 
	C580.283447,401.928772 576.833252,391.159332 572.913818,380.569977 
	C571.807007,377.579529 572.286499,376.005554 575.451904,374.989075 
	C588.646484,370.751984 585.094360,369.688110 589.917786,381.261871 
	C592.190125,386.714325 594.192810,392.279114 596.707092,398.803558 
	C600.069824,390.882996 603.189087,383.962341 605.933105,376.895966 
	C607.343994,373.262634 609.026367,371.409637 613.282837,372.622314 
	C616.359192,373.498779 619.682495,373.508331 623.804626,374.016571 
	C617.543396,389.479797 611.651306,404.031494 605.572266,418.956268 
M602.946716,419.385529 
	C602.518860,418.941528 602.091003,418.497559 601.663147,418.053558 
	C601.663147,423.887329 601.663147,429.721100 601.663147,435.554871 
	C602.100647,435.541229 602.538208,435.527557 602.975708,435.513916 
	C602.975708,430.413940 602.975708,425.313965 602.946716,419.385529 
z"/>
<path fill="#564BE6" opacity="1.000000" stroke="none" 
	d="
M628.155029,424.334045 
	C633.713135,428.271332 635.114990,432.258148 632.819763,436.695679 
	C630.731628,440.732849 626.539734,442.617371 622.462830,441.351654 
	C617.884888,439.930389 615.282715,435.776123 615.956055,430.963623 
	C616.542664,426.770660 619.987732,423.998962 624.810242,423.909210 
	C625.799316,423.890808 626.792297,424.085236 628.155029,424.334045 
z"/>
<path fill="#FBFAFE" opacity="1.000000" stroke="none" 
	d="
M381.263489,390.266846 
	C383.299225,389.899109 384.960114,389.390228 386.554382,389.549164 
	C388.340790,389.727264 390.066986,390.509796 391.819397,391.029327 
	C390.951141,393.167877 390.661499,396.082001 389.078766,397.262695 
	C386.718964,399.023041 383.447174,399.560699 379.394531,401.047424 
	C379.991211,396.718140 380.425201,393.569275 381.263489,390.266846 
z"/>
<path fill="#FBFAFE" opacity="1.000000" stroke="none" 
	d="
M385.237610,424.456543 
	C382.947632,425.197510 380.984436,425.731781 378.446533,426.422424 
	C378.589813,423.650269 378.952789,421.684631 378.732300,419.786774 
	C378.335785,416.374268 380.375946,415.223999 383.029205,415.263916 
	C385.253479,415.297333 387.464294,416.227020 389.681091,416.759827 
	C388.868042,418.909332 388.123383,421.089172 387.191833,423.186035 
	C386.970856,423.683441 386.123535,423.902618 385.237610,424.456543 
z"/>
<path fill="#000000" opacity="1.000000" stroke="none" 
	d="
M256.057281,432.987427 
	C256.209930,432.462646 256.315979,431.940582 256.421997,431.418518 
	C256.661133,431.522644 257.112854,431.649384 257.104553,431.727173 
	C257.054840,432.194397 256.899475,432.650360 256.397583,433.003510 
	C256.015625,432.896912 256.010681,432.990143 256.057281,432.987427 
z"/>
<path fill="#FBFAFE" opacity="1.000000" stroke="none" 
	d="
M702.545654,399.011108 
	C701.920532,404.789429 701.210266,410.146210 700.500000,415.503021 
	C700.424377,415.496155 700.348694,415.489288 700.273071,415.482422 
	C700.779419,408.328735 701.285828,401.175079 701.792175,394.021423 
	C702.102295,394.042053 702.412476,394.062683 702.722595,394.083344 
	C702.635254,395.585419 702.547913,397.087494 702.545654,399.011108 
z"/>
<path fill="#FBFAFE" opacity="1.000000" stroke="none" 
	d="
M705.217529,377.939911 
	C704.164795,379.809753 703.353088,381.363708 702.148682,383.669464 
	C702.148682,379.993988 702.148682,377.162689 702.148682,374.217651 
	C705.285706,373.747345 707.049683,374.148834 705.217529,377.939911 
z"/>
<path fill="#FBFAFE" opacity="1.000000" stroke="none" 
	d="
M664.558655,412.753052 
	C665.402283,407.837311 666.637878,403.099396 667.873474,398.361511 
	C668.226746,398.402100 668.580017,398.442688 668.933289,398.483276 
	C669.687378,403.098389 670.441406,407.713501 671.293884,412.930847 
	C668.814636,412.930847 666.882629,412.930847 664.558655,412.753052 
z"/>
<path fill="#FBFAFE" opacity="1.000000" stroke="none" 
	d="
M683.848999,433.070740 
	C678.971008,430.722443 682.292725,427.723267 682.410767,425.100677 
	C682.962524,424.953156 683.514343,424.805603 684.066101,424.658081 
	C685.224915,428.809692 686.383728,432.961304 687.542480,437.112915 
	C687.155029,437.261688 686.767517,437.410461 686.380066,437.559235 
	C685.617737,436.157837 684.855408,434.756470 683.848999,433.070740 
z"/>
<path fill="#FBFAFE" opacity="1.000000" stroke="none" 
	d="
M484.211426,422.767090 
	C484.596802,416.154663 485.014465,409.932373 485.429138,403.709869 
	C485.616272,400.901306 486.269684,398.023163 485.870850,395.299744 
	C485.268463,391.186493 486.341187,389.257202 490.671906,388.571777 
	C495.028687,387.882263 497.719269,388.870728 498.982361,393.274475 
	C501.775269,403.011871 498.930023,411.678680 493.193359,419.272827 
	C491.486633,421.532196 487.295288,421.914642 484.211426,422.767090 
z"/>
<path fill="#FBFAFE" opacity="1.000000" stroke="none" 
	d="
M537.910400,401.801758 
	C537.998047,399.504425 538.413086,397.609314 538.069702,395.863373 
	C537.101318,390.939331 539.138184,388.922607 543.923157,388.351685 
	C548.723389,387.778992 550.438660,390.303070 551.517517,394.285309 
	C554.765198,406.273895 547.853699,421.029602 536.097107,424.358582 
	C536.719910,416.692505 537.305725,409.482300 537.910400,401.801758 
z"/>
<path fill="#FBFAFE" opacity="1.000000" stroke="none" 
	d="
M602.961182,419.799744 
	C602.975708,425.313965 602.975708,430.413940 602.975708,435.513916 
	C602.538208,435.527557 602.100647,435.541229 601.663147,435.554871 
	C601.663147,429.721100 601.663147,423.887329 601.663147,418.053558 
	C602.091003,418.497559 602.518860,418.941528 602.961182,419.799744 
z"/>
</svg>